<svg fill="none" height="100%" width="100%" viewBox="0 0 978 996" xmlns:xlink="http://www.w3.org/1999/xlink" xmlns="http://www.w3.org/2000/svg"><g opacity="0" id="i0"><animate repeatCount="indefinite" attributeName="opacity" dur="1.8s" begin="0s" fill="freeze" values="0; 1; 1; 0; 0" keyTimes="0; 0.111111; 0.592593; 0.925926; 1" keySplines="0 0 1 1; 0 0 1 1; 0 0 1 1; 0 0 1 1" calcMode="spline" /><g transform="translate(500.191,497.138)"><g transform="scale(0.55,0.55)"><animateTransform repeatCount="indefinite" type="scale" attributeName="transform" dur="1.8s" begin="0s" calcMode="spline" values="0.55 0.55; 1 1; 1 1" keyTimes="0; 0.925926; 1" keySplines="0.167 0.167 0.198 1; 0 0 1 1" fill="freeze" /><g transform="translate(-393.187,-388.25)"><path d="M190.675,299.309C279.611,311.618,308.017,349.392,351.337,381.499C314.16,344.156,290.996,316.112,190.675,299.309Z" fill="#ed876b"><animate repeatCount="indefinite" attributeName="d" dur="1.8s" begin="0s" calcMode="spline" values="M190.675,299.309C279.611,311.618,308.017,349.392,351.337,381.499C314.16,344.156,290.996,316.112,190.675,299.309Z; M3.433,250.392C120.164,267.291,253.669,315.775,341.44,380.828C266.115,305.168,141.572,238.079,3.433,250.392Z; M-56.567,246.392C60.164,263.291,100.996,265.112,145.689,284.707C92.996,249.112,81.572,234.079,-56.567,246.392Z; M-56.567,246.392C60.164,263.291,100.996,265.112,145.689,284.707C92.996,249.112,81.572,234.079,-56.567,246.392Z" keyTimes="0; 0.333333; 0.925926; 1" keySplines="0.167 0.167 0.667 1; 0.333 0 0.833 0.833; 0 0 1 1" fill="freeze" /></path><path d="M351.761,389.507C292.763,369.718,234.996,371.113,166.25,398.051C243.996,373.113,297.48,379.383,351.761,389.507Z" fill="#ed876b"><animate repeatCount="indefinite" attributeName="d" dur="1.8s" begin="0s" calcMode="spline" values="M351.761,389.507C292.763,369.718,234.996,371.113,166.25,398.051C243.996,373.113,297.48,379.383,351.761,389.507Z; M342.299,397.052C222.763,356.958,64.422,404.183,0.25,468.332C83.094,429.393,232.32,376.54,342.299,397.052Z; M232.941,388.284C58.996,395.112,12.422,446.183,-51.75,510.332C22.996,449.113,82.996,429.112,232.941,388.284Z; M232.941,388.284C58.996,395.112,12.422,446.183,-51.75,510.332C22.996,449.113,82.996,429.112,232.941,388.284Z" keyTimes="0; 0.333333; 0.925926; 1" keySplines="0.167 0.167 0.667 1; 0.333 0 0.833 0.833; 0 0 1 1" fill="freeze" /></path><path d="M381.146,366.784C385.04,363.353,419.996,317.112,495.78,292.875C443.996,324.112,396.624,348.227,381.146,366.784Z" fill="#ed876b"><animate repeatCount="indefinite" attributeName="d" dur="1.8s" begin="0s" calcMode="spline" values="M381.146,366.784C385.04,363.353,419.996,317.112,495.78,292.875C443.996,324.112,396.624,348.227,381.146,366.784Z; M401.835,351.015C409.724,344.064,500.823,195.979,697.9,175.659C628.466,180.518,433.194,313.417,401.835,351.015Z; M555.564,246.83C564.22,242.119,631.619,183.59,757.125,199.666C713.251,192.545,592.141,218.925,555.564,246.83Z; M555.564,246.83C564.22,242.119,631.619,183.59,757.125,199.666C713.251,192.545,592.141,218.925,555.564,246.83Z" keyTimes="0; 0.333333; 0.925926; 1" keySplines="0.167 0.167 0.667 1; 0.333 0 0.833 0.833; 0 0 1 1" fill="freeze" /></path><path d="M496.397,235.614C422.996,286.112,390.722,312.959,370.202,367.468C393.142,325.366,427.949,287.278,496.397,235.614Z" fill="#ed876b"><animate repeatCount="indefinite" attributeName="d" dur="1.8s" begin="0s" calcMode="spline" values="M496.397,235.614C422.996,286.112,390.722,312.959,370.202,367.468C393.142,325.366,427.949,287.278,496.397,235.614Z; M604.208,81.941C497.583,133.56,421.237,241.959,379.662,352.4C426.14,267.098,514.368,152.871,604.208,81.941Z; M595.821,69.729C548.499,88.204,521.424,96.777,486.559,168.78C522.162,114.291,554.279,98.162,595.821,69.729Z; M595.821,69.729C548.499,88.204,521.424,96.777,486.559,168.78C522.162,114.291,554.279,98.162,595.821,69.729Z" keyTimes="0; 0.333333; 0.925926; 1" keySplines="0.167 0.167 0.667 1; 0.333 0 0.833 0.833; 0 0 1 1" fill="freeze" /></path><path d="M373.28,403.293C405.015,451.011,411.996,457.113,438.978,516.333C426.996,451.113,411.543,438.55,373.28,403.293Z" fill="#ed876b"><animate repeatCount="indefinite" attributeName="d" dur="1.8s" begin="0s" calcMode="spline" values="M373.28,403.293C405.015,451.011,411.996,457.113,438.978,516.333C426.996,451.113,411.543,438.55,373.28,403.293Z; M385.898,424.984C450.196,521.666,506.657,631.233,531.469,747.422C531.984,639.264,463.423,496.419,385.898,424.984Z; M450.469,509.874C497.996,611.112,518.996,733.112,529.469,803.422C529.984,695.264,513.996,624.112,450.469,509.874Z; M450.469,509.874C497.996,611.112,518.996,733.112,529.469,803.422C529.984,695.264,513.996,624.112,450.469,509.874Z" keyTimes="0; 0.333333; 0.925926; 1" keySplines="0.167 0.167 0.667 1; 0.333 0 0.833 0.833; 0 0 1 1" fill="freeze" /></path><path d="M381.899,390.332C430.322,393.802,488.996,395.112,553.669,420.547C524.879,394.422,456.784,380.768,381.899,390.332Z" fill="#ed876b"><animate repeatCount="indefinite" attributeName="d" dur="1.8s" begin="0s" calcMode="spline" values="M381.899,390.332C430.322,393.802,488.996,395.112,553.669,420.547C524.879,394.422,456.784,380.768,381.899,390.332Z; M403.362,398.725C501.471,405.756,593.667,445.712,676.754,496.472C638.966,460.605,555.086,379.347,403.362,398.725Z; M588.699,428.229C676.488,435.874,701.802,475.173,753.083,515.889C729.687,487.028,710.839,422.828,588.699,428.229Z; M588.699,428.229C676.488,435.874,701.802,475.173,753.083,515.889C729.687,487.028,710.839,422.828,588.699,428.229Z" keyTimes="0; 0.333333; 0.925926; 1" keySplines="0.167 0.167 0.667 1; 0.333 0 0.833 0.833; 0 0 1 1" fill="freeze" /></path><path d="M198.216,243.319C265.258,269.374,321.674,341.307,352.417,375.838C334.62,337.632,255.888,249.416,198.216,243.319Z" fill="#ed876b"><animate repeatCount="indefinite" attributeName="d" dur="1.8s" begin="0s" calcMode="spline" values="M198.216,243.319C265.258,269.374,321.674,341.307,352.417,375.838C334.62,337.632,255.888,249.416,198.216,243.319Z; M123.583,203.726C211.578,239.497,281.339,299.395,343.628,369.359C307.569,291.95,199.279,212.097,123.583,203.726Z; M51.583,127.726C114.996,165.113,158.996,191.112,228.877,256.04C178.996,183.112,127.279,136.097,51.583,127.726Z; M51.583,127.726C114.996,165.113,158.996,191.112,228.877,256.04C178.996,183.112,127.279,136.097,51.583,127.726Z" keyTimes="0; 0.333333; 0.925926; 1" keySplines="0.167 0.167 0.667 1; 0.333 0 0.833 0.833; 0 0 1 1" fill="freeze" /></path><path d="M378.243,397.311C378.564,397.649,384.085,399.417,386.553,400.159C420.748,411.062,476.172,421.052,554.486,502.859C487.506,407.16,412.791,400.332,378.243,397.311Z" fill="#ed876b"><animate repeatCount="indefinite" attributeName="d" dur="1.8s" begin="0s" calcMode="spline" values="M378.243,397.311C378.564,397.649,384.085,399.417,386.553,400.159C420.748,411.062,476.172,421.052,554.486,502.859C487.506,407.16,412.791,400.332,378.243,397.311Z; M395.954,412.865C396.604,413.55,407.79,417.132,412.791,418.635C482.073,440.726,552.172,483.052,630.486,564.859C563.506,469.16,465.951,418.985,395.954,412.865Z; M568.265,500.508C568.513,501.192,575.317,507.178,578.389,509.785C620.558,546.794,626.438,569.775,647.07,626.096C634.886,565.441,615.867,526.476,568.265,500.508Z; M568.265,500.508C568.513,501.192,575.317,507.178,578.389,509.785C620.558,546.794,626.438,569.775,647.07,626.096C634.886,565.441,615.867,526.476,568.265,500.508Z" keyTimes="0; 0.333333; 0.925926; 1" keySplines="0.167 0.167 0.667 1; 0.333 0 0.833 0.833; 0 0 1 1" fill="freeze" /></path><path d="M385.902,252.516C391.996,216.112,410.159,176.851,381.27,118.112C401.452,177.895,385.996,209.112,385.902,252.516Z" fill="#ed876b"><animate repeatCount="indefinite" attributeName="d" dur="1.8s" begin="0s" calcMode="spline" values="M385.902,252.516C391.996,216.112,410.159,176.851,381.27,118.112C401.452,177.895,385.996,209.112,385.902,252.516Z; M385.902,252.516C403.181,164.846,391.265,80.894,353.347,0.25C379.836,82.327,387.5,166.826,385.902,252.516Z; M384.475,174.246C404.996,119.112,410.996,67.112,381.347,-1.75C390.996,63.112,384.996,115.112,384.475,174.246Z; M384.475,174.246C404.996,119.112,410.996,67.112,381.347,-1.75C390.996,63.112,384.996,115.112,384.475,174.246Z" keyTimes="0; 0.333333; 0.925926; 1" keySplines="0.167 0.167 0.667 1; 0.333 0 0.833 0.833; 0 0 1 1" fill="freeze" /></path><path d="M238.467,452.727C281.909,419.448,316.107,400.658,351.719,392.544C313.065,394.741,275.838,408.197,238.467,452.727Z" fill="#ed876b"><animate repeatCount="indefinite" attributeName="d" dur="1.8s" begin="0s" calcMode="spline" values="M238.467,452.727C281.909,419.448,316.107,400.658,351.719,392.544C313.065,394.741,275.838,408.197,238.467,452.727Z; M151.476,502.211C208.495,456.522,270.06,419.647,342.214,403.207C263.898,407.659,200.526,441.075,151.476,502.211Z; M83.476,624.211C126.997,565.113,140.996,509.112,244.818,443.227C116.996,527.112,98.997,565.113,83.476,624.211Z; M83.476,624.211C126.997,565.113,140.996,509.112,244.818,443.227C116.996,527.112,98.997,565.113,83.476,624.211Z" keyTimes="0; 0.333333; 0.925926; 1" keySplines="0.167 0.167 0.667 1; 0.333 0 0.833 0.833; 0 0 1 1" fill="freeze" /></path><path d="M321.889,213.737C339.996,251.112,348.421,330.901,353.076,355.196C354.107,331.775,352.996,251.112,321.889,213.737Z" fill="#ed876b"><animate repeatCount="indefinite" attributeName="d" dur="1.8s" begin="0s" calcMode="spline" values="M321.889,213.737C339.996,251.112,348.421,330.901,353.076,355.196C354.107,331.775,352.996,251.112,321.889,213.737Z; M285.908,163.113C311.606,205.648,335.532,278.311,344.963,327.536C347.052,280.083,334.646,200.331,285.908,163.113Z; M285.908,107.113C298.996,155.113,315.081,187.731,328.823,259.264C331.867,190.306,328.996,157.113,285.908,107.113Z; M285.908,107.113C298.996,155.113,315.081,187.731,328.823,259.264C331.867,190.306,328.996,157.113,285.908,107.113Z" keyTimes="0; 0.333333; 0.925926; 1" keySplines="0.167 0.167 0.667 1; 0.333 0 0.833 0.833; 0 0 1 1" fill="freeze" /></path><path d="M391.735,533.625C404.864,480.722,383.949,437.901,369.644,404.179C379.427,438.323,394.725,481.625,391.735,533.625Z" fill="#ed876b"><animate repeatCount="indefinite" attributeName="d" dur="1.8s" begin="0s" calcMode="spline" values="M391.735,533.625C404.864,480.722,383.949,437.901,369.644,404.179C379.427,438.323,394.725,481.625,391.735,533.625Z; M398.584,637.99C415.816,565.358,407.515,495.105,378.532,426.781C398.353,495.96,402.508,566.598,398.584,637.99Z; M398.584,637.99C410.996,595.113,408.996,569.112,385.737,517.484C390.996,569.112,388.996,605.113,398.584,637.99Z; M398.584,637.99C410.996,595.113,408.996,569.112,385.737,517.484C390.996,569.112,388.996,605.113,398.584,637.99Z" keyTimes="0; 0.333333; 0.925926; 1" keySplines="0.167 0.167 0.667 1; 0.333 0 0.833 0.833; 0 0 1 1" fill="freeze" /></path><path d="M464.011,359.904C488.706,348.145,496.65,349.3,518.107,347.648C494.621,342.429,486.603,348.024,464.011,359.904Z" fill="#ed876b"><animate repeatCount="indefinite" attributeName="d" dur="1.8s" begin="0s" calcMode="spline" values="M464.011,359.904C488.706,348.145,496.65,349.3,518.107,347.648C494.621,342.429,486.603,348.024,464.011,359.904Z; M615.935,333.956C675.825,329.661,731.823,344.763,786.124,368.616C739.11,329.996,674.226,317.811,615.935,333.956Z; M615.935,333.956C675.825,329.661,731.823,344.763,786.124,368.616C739.11,329.996,674.226,317.811,615.935,333.956Z" keyTimes="0; 0.333333; 1" keySplines="0.167 0.167 0.667 1; 0 0 1 1" fill="freeze" /></path><path d="M347.111,408.214C297.996,459.112,300.996,451.112,271.928,512.33C298.532,449.776,305.329,461.112,347.111,408.214Z" fill="#ed876b"><animate repeatCount="indefinite" attributeName="d" dur="1.8s" begin="0s" calcMode="spline" values="M347.111,408.214C297.996,459.112,300.996,451.112,271.928,512.33C298.532,449.776,305.329,461.112,347.111,408.214Z; M332.879,434.956C233.111,523.552,165.8,645.216,141.581,776.25C176.499,690.368,248.225,542.133,332.879,434.956Z; M201.214,627.365C124.996,689.113,132.996,729.113,141.581,776.25C136.996,729.113,172.996,677.113,201.214,627.365Z; M201.214,627.365C124.996,689.113,132.996,729.113,141.581,776.25C136.996,729.113,172.996,677.113,201.214,627.365Z" keyTimes="0; 0.333333; 0.925926; 1" keySplines="0.167 0.167 0.667 1; 0.333 0 0.833 0.833; 0 0 1 1" fill="freeze" /></path></g></g></g></g><g opacity="0" id="i1"><animate repeatCount="indefinite" attributeName="opacity" dur="1.8s" begin="0s" fill="freeze" values="0; 1; 1; 0; 0" keyTimes="0; 0.185185; 0.611112; 0.981481; 1" keySplines="0 0 1 1; 0 0 1 1; 0 0 1 1; 0 0 1 1" calcMode="spline" /><g transform="translate(508,484.082)"><g transform="scale(0.55,0.55)"><animateTransform repeatCount="indefinite" type="scale" attributeName="transform" dur="1.8s" begin="0s" calcMode="spline" values="0.55 0.55; 1 1; 1 1" keyTimes="0; 0.796296; 1" keySplines="0.167 0.167 0.198 1; 0 0 1 1" fill="freeze" /><g transform="translate(-399.849,-357.626)"><g><g transform="translate(319.077,298.427)"><animateTransform repeatCount="indefinite" type="translate" attributeName="transform" dur="1.8s" begin="0s" calcMode="spline" values="319.077 298.427; 199.077 172.427; 135.077 72.427" keyTimes="0; 0.518518; 1" keySplines="0.167 0.167 0.667 1; 0.333 0 0.667 1" fill="freeze" /><g id="i2" transform="scale(0.33,0.33)"><animateTransform repeatCount="indefinite" type="scale" attributeName="transform" dur="1.8s" begin="0s" calcMode="spline" values="0.33 0.33; 1 1; 0.33 0.33" keyTimes="0; 0.518518; 1" keySplines="0.167 0.167 0.667 1; 0.333 0 0.833 0.833" fill="freeze" /><path fill="#ecd293" d="M153.49,172.177C79.995,35.122,-28.856,-80.252,-153.49,-172.177C-6.107,-112.84,101.49,27.523,153.49,172.177Z" /></g></g></g><g><g transform="translate(478.784,334.32)"><animateTransform repeatCount="indefinite" type="translate" attributeName="transform" dur="1.8s" begin="0s" calcMode="spline" values="478.784 334.32; 598.589 302.766; 680.589 262.766" keyTimes="0; 0.518518; 1" keySplines="0.167 0.167 0.667 1; 0.333 0 0.667 1" fill="freeze" /><g id="i3" transform="scale(0.33,0.33)"><animateTransform repeatCount="indefinite" type="scale" attributeName="transform" dur="1.8s" begin="0s" calcMode="spline" values="0.33 0.33; 1 1; 0.33 0.33" keyTimes="0; 0.518518; 1" keySplines="0.167 0.167 0.667 1; 0.333 0 0.833 0.833" fill="freeze" /><path fill="#ecd293" d="M200.217,-18.618C62.833,-23.58,-77.445,-0.588,-200.217,63.305C-91.782,-21.554,65.232,-63.305,200.217,-18.618Z" /></g></g></g><g><g transform="translate(434.838,428.274)"><animateTransform repeatCount="indefinite" type="translate" attributeName="transform" dur="1.8s" begin="0s" calcMode="spline" values="434.838 428.274; 514.838 542.274; 594.838 622.274" keyTimes="0; 0.518518; 1" keySplines="0.167 0.167 0.667 1; 0.333 0 0.667 1" fill="freeze" /><g id="i4" transform="scale(0.33,0.33)"><animateTransform repeatCount="indefinite" type="scale" attributeName="transform" dur="1.8s" begin="0s" calcMode="spline" values="0.33 0.33; 1 1; 0.33 0.33" keyTimes="0; 0.518518; 1" keySplines="0.167 0.167 0.667 1; 0.333 0 0.833 0.833" fill="freeze" /><path fill="#ecd293" d="M-123.29,-141.208C-1.677,-81.9,79.61,13.384,124.33,141.208C64.447,42.293,-25.895,-82.074,-124.33,-140.315C-123.983,-140.613,-123.636,-140.911,-123.29,-141.208Z" /></g></g></g><g><g transform="translate(452.311,369.241)"><animateTransform repeatCount="indefinite" type="translate" attributeName="transform" dur="1.8s" begin="0s" calcMode="spline" values="452.311 369.241; 552.311 363.241; 642.311 393.241" keyTimes="0; 0.518518; 1" keySplines="0.167 0.167 0.667 1; 0.167 0 0.667 1" fill="freeze" /><g id="i5" transform="scale(0.33,0.33)"><animateTransform repeatCount="indefinite" type="scale" attributeName="transform" dur="1.8s" begin="0s" calcMode="spline" values="0.33 0.33; 1 1; 0.33 0.33" keyTimes="0; 0.518518; 1" keySplines="0.167 0.167 0.667 1; 0.333 0 0.833 0.833" fill="freeze" /><path fill="#ecd293" d="M131.362,27.233C45.22,0.187,-42.016,-10.6,-131.363,7.63C-46.81,-27.233,53.896,-23.677,131.362,27.233Z" /></g></g></g><g><g transform="translate(325.905,428.598)"><animateTransform repeatCount="indefinite" type="translate" attributeName="transform" dur="1.8s" begin="0s" calcMode="spline" values="325.905 428.598; 245.905 502.598; 121.905 602.598" keyTimes="0; 0.518518; 1" keySplines="0.167 0.167 0.667 1; 0.333 0 0.667 1" fill="freeze" /><g id="i6" transform="scale(0.33,0.33)"><animateTransform repeatCount="indefinite" type="scale" attributeName="transform" dur="1.8s" begin="0s" calcMode="spline" values="0.33 0.33; 1 1; 0.33 0.33" keyTimes="0; 0.518518; 1" keySplines="0.167 0.167 0.667 1; 0.333 0 0.833 0.833" fill="freeze" /><path fill="#ecd293" d="M100.091,-106.02C19.978,-47.968,-48.367,20.957,-100.091,106.02C-59.601,16.123,6.025,-68.889,100.091,-106.02Z" /></g></g></g><g><g transform="translate(363.626,446.025)"><animateTransform repeatCount="indefinite" type="translate" attributeName="transform" dur="1.8s" begin="0s" calcMode="spline" values="363.626 446.025; 323.626 560.025; 279.626 710.025" keyTimes="0; 0.518518; 1" keySplines="0.167 0.167 0.667 1; 0.333 0 0.667 1" fill="freeze" /><g id="i7" transform="scale(0.33,0.33)"><animateTransform repeatCount="indefinite" type="scale" attributeName="transform" dur="1.8s" begin="0s" calcMode="spline" values="0.33 0.33; 1 1; 0.33 0.33" keyTimes="0; 0.518518; 1" keySplines="0.167 0.167 0.667 1; 0.333 0 0.833 0.833" fill="freeze" /><path fill="#ecd293" d="M41.31,-154.976C2.595,-56.153,-23.911,48.398,-25.84,154.977C-41.31,87.731,-10.292,-93.657,41.31,-154.976Z" /></g></g></g><g><g transform="translate(372.33,290.176)"><animateTransform repeatCount="indefinite" type="translate" attributeName="transform" dur="1.8s" begin="0s" calcMode="spline" values="372.33 290.176; 352.33 184.176; 352.33 104.176; 352.33 104.176" keyTimes="0; 0.388889; 0.962963; 1" keySplines="0.167 0.167 0.667 1; 0.333 0 0.667 1; 0 0 1 1" fill="freeze" /><g id="i8" transform="scale(0.33,0.33)"><animateTransform repeatCount="indefinite" type="scale" attributeName="transform" dur="1.8s" begin="0s" calcMode="spline" values="0.33 0.33; 1 1; 0.33 0.33; 0.33 0.33" keyTimes="0; 0.388889; 0.962963; 1" keySplines="0.167 0.167 0.667 1; 0.333 0 0.833 0.833; 0 0 1 1" fill="freeze" /><path fill="#ecd293" d="M11.899,154.934C12.613,50.278,2.24,-55.635,-32.314,-154.934C16.048,-56.382,32.314,46.732,11.899,154.934Z" /></g></g></g><g><g transform="translate(315.286,350.28)"><animateTransform repeatCount="indefinite" type="translate" attributeName="transform" dur="1.8s" begin="0s" calcMode="spline" values="315.286 350.28; 135.286 304.28; 15.286 304.28; 15.286 304.28" keyTimes="0; 0.388889; 0.962963; 1" keySplines="0.167 0.167 0.667 1; 0.333 0 0.667 1; 0 0 1 1" fill="freeze" /><g id="i9" transform="scale(0.33,0.33)"><animateTransform repeatCount="indefinite" type="scale" attributeName="transform" dur="1.8s" begin="0s" calcMode="spline" values="0.33 0.33; 1 1; 0.33 0.33; 0.33 0.33" keyTimes="0; 0.388889; 0.962963; 1" keySplines="0.167 0.167 0.667 1; 0.333 0 0.833 0.833; 0 0 1 1" fill="freeze" /><path fill="#ecd293" d="M-135.036,14.778C-28.781,-34.841,72.626,-2.596,135.036,34.841C91.464,22.906,-21.263,-14.292,-135.036,14.778Z" /></g></g></g><g><g transform="translate(324.115,385.221)"><animateTransform repeatCount="indefinite" type="translate" attributeName="transform" dur="1.8s" begin="0s" calcMode="spline" values="324.115 385.221; 164.115 439.221; 84.115 477.221" keyTimes="0; 0.518518; 1" keySplines="0.167 0.167 0.667 1; 0.333 0 0.667 1" fill="freeze" /><g id="i10" transform="scale(0.33,0.33)"><animateTransform repeatCount="indefinite" type="scale" attributeName="transform" dur="1.8s" begin="0s" calcMode="spline" values="0.33 0.33; 1 1; 0.33 0.33" keyTimes="0; 0.518518; 1" keySplines="0.167 0.167 0.667 1; 0.333 0 0.833 0.833" fill="freeze" /><path fill="#ecd293" d="M-91.911,47.589C-42.644,-7.361,20.348,-35.815,91.911,-47.589C26.22,-24.499,-34.484,8.263,-91.911,47.589Z" /></g></g></g><g><g transform="translate(409.06,315.608)"><animateTransform repeatCount="indefinite" type="translate" attributeName="transform" dur="1.8s" begin="0s" calcMode="spline" values="409.06 315.608; 429.06 209.608; 469.06 169.608" keyTimes="0; 0.518518; 1" keySplines="0.167 0.167 0.667 1; 0.333 0 0.667 1" fill="freeze" /><g id="i11" transform="scale(0.33,0.33)"><animateTransform repeatCount="indefinite" type="scale" attributeName="transform" dur="1.8s" begin="0s" calcMode="spline" values="0.33 0.33; 1 1; 0.33 0.33" keyTimes="0; 0.518518; 1" keySplines="0.167 0.167 0.667 1; 0.333 0 0.833 0.833" fill="freeze" /><path fill="#ecd293" d="M-46.433,89.832C-38.796,31.518,-5.785,-46.601,46.433,-89.832C6.885,-35.565,-26.589,25.794,-46.433,89.832Z" /></g></g></g><g><g transform="translate(433.712,320.594)"><animateTransform repeatCount="indefinite" type="translate" attributeName="transform" dur="1.8s" begin="0s" calcMode="spline" values="433.712 320.594; 593.712 134.594; 673.712 84.594" keyTimes="0; 0.518518; 1" keySplines="0.167 0.167 0.667 1; 0.333 0 0.667 1" fill="freeze" /><g id="i12" transform="scale(0.33,0.33)"><animateTransform repeatCount="indefinite" type="scale" attributeName="transform" dur="1.8s" begin="0s" calcMode="spline" values="0.33 0.33; 1 1; 0.33 0.33" keyTimes="0; 0.518518; 1" keySplines="0.167 0.167 0.667 1; 0.333 0 0.833 0.833" fill="freeze" /><path fill="#ecd293" d="M79.143,-44.233C20.266,-25.73,-33.232,2.351,-79.144,44.233C-40.638,-4.156,15.742,-42.492,79.143,-44.233Z" /></g></g></g><g><g transform="translate(452.615,424.114)"><animateTransform repeatCount="indefinite" type="translate" attributeName="transform" dur="1.8s" begin="0s" calcMode="spline" values="452.615 424.114; 632.615 498.114; 677.029 529.122" keyTimes="0; 0.518518; 1" keySplines="0.167 0.167 0.667 1; 0.333 0 0.667 1" fill="freeze" /><g id="i13" transform="scale(0.33,0.33)"><animateTransform repeatCount="indefinite" type="scale" attributeName="transform" dur="1.8s" begin="0s" calcMode="spline" values="0.33 0.33; 1 1; 0.33 0.33" keyTimes="0; 0.518518; 1" keySplines="0.167 0.167 0.667 1; 0.333 0 0.833 0.833" fill="freeze" /><path fill="#ecd293" d="M70.279,59.801C31.136,11.032,-13.052,-31.76,-70.279,-59.801C-17.612,-46.922,41.008,-2.746,70.279,59.801Z" /></g></g></g><g><g transform="translate(323.473,330.402)"><animateTransform repeatCount="indefinite" type="translate" attributeName="transform" dur="1.8s" begin="0s" calcMode="spline" values="323.473 330.402; 143.473 218.402; 43.473 175.402" keyTimes="0; 0.518518; 1" keySplines="0.167 0.167 0.667 1; 0.333 0 0.667 1" fill="freeze" /><g id="i14" transform="scale(0.33,0.33)"><animateTransform repeatCount="indefinite" type="scale" attributeName="transform" dur="1.8s" begin="0s" calcMode="spline" values="0.33 0.33; 1 1; 0.33 0.33" keyTimes="0; 0.518518; 1" keySplines="0.167 0.167 0.667 1; 0.333 0 0.833 0.833" fill="freeze" /><path fill="#ecd293" d="M75.438,31.365C26.583,6.999,-22.814,-13.236,-75.438,-25.827C-44.603,-31.365,51.75,4.983,75.438,31.365Z" /></g></g></g></g></g></g></g><g visibility="hidden" id="i15"><animate repeatCount="indefinite" begin="0s" calcMode="discrete" dur="1.8s" values="hidden; visible; hidden; hidden" keyTimes="0; 0.13; 0.889; 1" attributeName="visibility" /><g transform="translate(478.564,487.525)"><g transform="scale(0.8,0.8)"><animateTransform repeatCount="indefinite" type="scale" attributeName="transform" dur="1.8s" begin="0s" calcMode="spline" values="0.8 0.8; 0.8 0.8; 1 1; 1 1" keyTimes="0; 0.129629; 0.629629; 1" keySplines="0 0 1 1; 0.167 0.167 0 1; 0 0 1 1" fill="freeze" /><g transform="translate(-432.402,-411.619)"><g><g transform="translate(37.621,286.56)"><g id="i16" transform="scale(0,0)"><animateTransform repeatCount="indefinite" type="scale" attributeName="transform" dur="1.8s" begin="0s" calcMode="spline" values="0 0; 0 0; 0.917 0.917; 0.97 0.97; 0 0; 0 0" keyTimes="0; 0.148148; 0.314815; 0.481482; 0.759259; 1" keySplines="0 0 1 1; 0.167 0.167 0.734 0.851; 0.172 1 0.704 1; 0.578 0.083 0.85 0.823; 0 0 1 1" fill="freeze" /><path fill="#ed876b" d="M-8.876,14.554C-8.876,14.554,-8.16,4.772,-8.16,4.772C-8.16,4.772,-15.769,-1.394,-15.769,-1.394C-16.636,-2.097,-16.329,-3.49,-15.249,-3.754C-15.249,-3.754,-5.775,-6.059,-5.775,-6.059C-5.775,-6.059,-2.318,-15.221,-2.318,-15.221C-1.924,-16.264,-0.51,-16.398,0.075,-15.446C0.075,-15.446,5.214,-7.09,5.214,-7.09C5.214,-7.09,14.96,-6.585,14.96,-6.585C16.069,-6.527,16.636,-5.215,15.918,-4.364C15.918,-4.364,9.62,3.105,9.62,3.105C9.62,3.105,12.187,12.579,12.187,12.579C12.48,13.658,11.415,14.601,10.387,14.176C10.387,14.176,1.355,10.436,1.355,10.436C1.355,10.436,-6.803,15.788,-6.803,15.788C-7.732,16.398,-8.958,15.668,-8.876,14.554Z" /></g></g></g><g><g transform="translate(139.699,637.73)"><g id="i17" transform="scale(0,0)"><animateTransform repeatCount="indefinite" type="scale" attributeName="transform" dur="1.8s" begin="0s" calcMode="spline" values="0 0; 0 0; 0.917 0.917; 0.97 0.97; 0 0; 0 0" keyTimes="0; 0.148148; 0.314815; 0.481482; 0.759259; 1" keySplines="0 0 1 1; 0.167 0.167 0.734 0.851; 0.172 1 0.704 1; 0.578 0.083 0.85 0.823; 0 0 1 1" fill="freeze" /><path fill="#ed876b" d="M-7.945,13.025C-7.945,13.025,-7.303,4.271,-7.303,4.271C-7.303,4.271,-14.113,-1.247,-14.113,-1.247C-14.888,-1.875,-14.614,-3.123,-13.647,-3.358C-13.647,-3.358,-5.169,-5.421,-5.169,-5.421C-5.169,-5.421,-2.076,-13.621,-2.076,-13.621C-1.723,-14.555,-0.459,-14.674,0.065,-13.822C0.065,-13.822,4.665,-6.343,4.665,-6.343C4.665,-6.343,13.385,-5.893,13.385,-5.893C14.378,-5.841,14.887,-4.667,14.244,-3.906C14.244,-3.906,8.608,2.779,8.608,2.779C8.608,2.779,10.904,11.258,10.904,11.258C11.167,12.223,10.215,13.068,9.294,12.686C9.294,12.686,1.211,9.34,1.211,9.34C1.211,9.34,-6.09,14.129,-6.09,14.129C-6.921,14.674,-8.018,14.022,-7.945,13.025Z" /></g></g></g><g><g transform="translate(309.779,726.599)"><g id="i18" transform="scale(0,0)"><animateTransform repeatCount="indefinite" type="scale" attributeName="transform" dur="1.8s" begin="0s" calcMode="spline" values="0 0; 0 0; 0.917 0.917; 0.97 0.97; 0 0; 0 0" keyTimes="0; 0.148148; 0.314815; 0.481482; 0.759259; 1" keySplines="0 0 1 1; 0.167 0.167 0.734 0.851; 0.172 1 0.704 1; 0.578 0.083 0.85 0.823; 0 0 1 1" fill="freeze" /><path fill="#ed876b" d="M-6.765,11.094C-6.765,11.094,-6.22,3.638,-6.22,3.638C-6.22,3.638,-12.02,-1.062,-12.02,-1.062C-12.682,-1.598,-12.447,-2.661,-11.624,-2.861C-11.624,-2.861,-4.402,-4.619,-4.402,-4.619C-4.402,-4.619,-1.767,-11.602,-1.767,-11.602C-1.466,-12.398,-0.389,-12.499,0.058,-11.773C0.058,-11.773,3.975,-5.404,3.975,-5.404C3.975,-5.404,11.403,-5.02,11.403,-5.02C12.249,-4.977,12.681,-3.976,12.134,-3.328C12.134,-3.328,7.334,2.367,7.334,2.367C7.334,2.367,9.29,9.589,9.29,9.589C9.513,10.411,8.702,11.13,7.918,10.805C7.918,10.805,1.033,7.956,1.033,7.956C1.033,7.956,-5.186,12.034,-5.186,12.034C-5.895,12.499,-6.828,11.944,-6.765,11.094Z" /></g></g></g><g><g transform="translate(12.931,390.843)"><g id="i19" transform="scale(0,0)"><animateTransform repeatCount="indefinite" type="scale" attributeName="transform" dur="1.8s" begin="0s" calcMode="spline" values="0 0; 0 0; 0.917 0.917; 0.97 0.97; 0 0; 0 0" keyTimes="0; 0.148148; 0.314815; 0.481482; 0.759259; 1" keySplines="0 0 1 1; 0.167 0.167 0.734 0.851; 0.172 1 0.704 1; 0.578 0.083 0.85 0.823; 0 0 1 1" fill="freeze" /><path fill="#ed876b" d="M-6.766,11.094C-6.766,11.094,-6.219,3.638,-6.219,3.638C-6.219,3.638,-12.02,-1.063,-12.02,-1.063C-12.682,-1.598,-12.447,-2.661,-11.624,-2.861C-11.624,-2.861,-4.402,-4.619,-4.402,-4.619C-4.402,-4.619,-1.768,-11.603,-1.768,-11.603C-1.468,-12.399,-0.389,-12.499,0.057,-11.774C0.057,-11.774,3.975,-5.404,3.975,-5.404C3.975,-5.404,11.404,-5.02,11.404,-5.02C12.25,-4.977,12.681,-3.976,12.134,-3.328C12.134,-3.328,7.333,2.367,7.333,2.367C7.333,2.367,9.29,9.589,9.29,9.589C9.512,10.411,8.701,11.131,7.917,10.805C7.917,10.805,1.033,7.955,1.033,7.955C1.033,7.955,-5.186,12.034,-5.186,12.034C-5.894,12.499,-6.829,11.944,-6.766,11.094Z" /></g></g></g><g><g transform="translate(173.866,194.794)"><g id="i20" transform="scale(0,0)"><animateTransform repeatCount="indefinite" type="scale" attributeName="transform" dur="1.8s" begin="0s" calcMode="spline" values="0 0; 0 0; 0.917 0.917; 0.97 0.97; 0 0; 0 0" keyTimes="0; 0.148148; 0.314815; 0.481482; 0.759259; 1" keySplines="0 0 1 1; 0.167 0.167 0.734 0.851; 0.172 1 0.704 1; 0.578 0.083 0.85 0.823; 0 0 1 1" fill="freeze" /><path fill="#ed876b" d="M-8.201,13.446C-8.201,13.446,-7.539,4.409,-7.539,4.409C-7.539,4.409,-14.569,-1.288,-14.569,-1.288C-15.37,-1.937,-15.085,-3.225,-14.088,-3.468C-14.088,-3.468,-5.335,-5.598,-5.335,-5.598C-5.335,-5.598,-2.143,-14.063,-2.143,-14.063C-1.779,-15.027,-0.472,-15.149,0.069,-14.27C0.069,-14.27,4.817,-6.55,4.817,-6.55C4.817,-6.55,13.82,-6.085,13.82,-6.085C14.845,-6.031,15.37,-4.82,14.706,-4.033C14.706,-4.033,8.887,2.869,8.887,2.869C8.887,2.869,11.26,11.621,11.26,11.621C11.529,12.619,10.546,13.49,9.596,13.097C9.596,13.097,1.251,9.642,1.251,9.642C1.251,9.642,-6.286,14.586,-6.286,14.586C-7.144,15.149,-8.276,14.475,-8.201,13.446Z" /></g></g></g><g><g transform="translate(768.633,413.553)"><g id="i21" transform="scale(0,0)"><animateTransform repeatCount="indefinite" type="scale" attributeName="transform" dur="1.8s" begin="0s" calcMode="spline" values="0 0; 0 0; 0.917 0.917; 0.97 0.97; 0 0; 0 0" keyTimes="0; 0.148148; 0.314815; 0.481482; 0.759259; 1" keySplines="0 0 1 1; 0.167 0.167 0.734 0.851; 0.172 1 0.704 1; 0.578 0.083 0.85 0.823; 0 0 1 1" fill="freeze" /><path fill="#ed876b" d="M-8.2,13.447C-8.2,13.447,-7.539,4.41,-7.539,4.41C-7.539,4.41,-14.568,-1.287,-14.568,-1.287C-15.369,-1.936,-15.085,-3.224,-14.088,-3.467C-14.088,-3.467,-5.335,-5.597,-5.335,-5.597C-5.335,-5.597,-2.142,-14.062,-2.142,-14.062C-1.778,-15.026,-0.472,-15.149,0.07,-14.27C0.07,-14.27,4.818,-6.549,4.818,-6.549C4.818,-6.549,13.82,-6.083,13.82,-6.083C14.846,-6.031,15.37,-4.818,14.708,-4.033C14.708,-4.033,8.888,2.869,8.888,2.869C8.888,2.869,11.26,11.622,11.26,11.622C11.53,12.619,10.547,13.491,9.597,13.097C9.597,13.097,1.253,9.642,1.253,9.642C1.253,9.642,-6.285,14.586,-6.285,14.586C-7.144,15.149,-8.275,14.476,-8.2,13.447Z" /></g></g></g><g><g transform="translate(486.253,163.833)"><g id="i22" transform="scale(0,0)"><animateTransform repeatCount="indefinite" type="scale" attributeName="transform" dur="1.8s" begin="0s" calcMode="spline" values="0 0; 0 0; 0.917 0.917; 0.97 0.97; 0 0; 0 0" keyTimes="0; 0.148148; 0.314815; 0.481482; 0.759259; 1" keySplines="0 0 1 1; 0.167 0.167 0.734 0.851; 0.172 1 0.704 1; 0.578 0.083 0.85 0.823; 0 0 1 1" fill="freeze" /><path fill="#ed876b" d="M-8.2,13.446C-8.2,13.446,-7.539,4.409,-7.539,4.409C-7.539,4.409,-14.568,-1.289,-14.568,-1.289C-15.369,-1.937,-15.086,-3.224,-14.089,-3.467C-14.089,-3.467,-5.335,-5.597,-5.335,-5.597C-5.335,-5.597,-2.142,-14.062,-2.142,-14.062C-1.779,-15.026,-0.472,-15.149,0.068,-14.269C0.068,-14.269,4.817,-6.549,4.817,-6.549C4.817,-6.549,13.82,-6.083,13.82,-6.083C14.845,-6.03,15.369,-4.82,14.707,-4.034C14.707,-4.034,8.888,2.869,8.888,2.869C8.888,2.869,11.259,11.622,11.259,11.622C11.529,12.619,10.547,13.49,9.595,13.096C9.595,13.096,1.252,9.641,1.252,9.641C1.252,9.641,-6.286,14.586,-6.286,14.586C-7.145,15.149,-8.276,14.475,-8.2,13.446Z" /></g></g></g><g><g transform="translate(455.225,728.413)"><g id="i23" transform="scale(0,0)"><animateTransform repeatCount="indefinite" type="scale" attributeName="transform" dur="1.8s" begin="0s" calcMode="spline" values="0 0; 0 0; 0.917 0.917; 0.97 0.97; 0 0; 0 0" keyTimes="0; 0.148148; 0.314815; 0.481482; 0.759259; 1" keySplines="0 0 1 1; 0.167 0.167 0.734 0.851; 0.172 1 0.704 1; 0.578 0.083 0.85 0.823; 0 0 1 1" fill="freeze" /><path fill="#ed876b" d="M-7.875,-1.611C-7.875,-1.611,-3.051,-3.081,-3.051,-3.081C-3.051,-3.081,-1.533,-7.914,-1.533,-7.914C-1.361,-8.465,-0.635,-8.576,-0.306,-8.102C-0.306,-8.102,2.59,-3.937,2.59,-3.937C2.59,-3.937,7.637,-3.964,7.637,-3.964C8.212,-3.967,8.544,-3.305,8.198,-2.844C8.198,-2.844,5.163,1.198,5.163,1.198C5.163,1.198,6.764,6.016,6.764,6.016C6.947,6.564,6.426,7.083,5.883,6.893C5.883,6.893,1.111,5.229,1.111,5.229C1.111,5.229,-2.947,8.232,-2.947,8.232C-3.408,8.575,-4.061,8.235,-4.051,7.657C-4.051,7.657,-3.966,2.583,-3.966,2.583C-3.966,2.583,-8.075,-0.377,-8.075,-0.377C-8.543,-0.714,-8.425,-1.443,-7.875,-1.611Z" /></g></g></g><g><g transform="translate(409.675,8.825)"><g id="i24" transform="scale(0,0)"><animateTransform repeatCount="indefinite" type="scale" attributeName="transform" dur="1.8s" begin="0s" calcMode="spline" values="0 0; 0 0; 0.917 0.917; 0.97 0.97; 0 0; 0 0" keyTimes="0; 0.148148; 0.314815; 0.481482; 0.759259; 1" keySplines="0 0 1 1; 0.167 0.167 0.734 0.851; 0.172 1 0.704 1; 0.578 0.083 0.85 0.823; 0 0 1 1" fill="freeze" /><path fill="#ed876b" d="M-7.876,-1.61C-7.876,-1.61,-3.052,-3.08,-3.052,-3.08C-3.052,-3.08,-1.534,-7.914,-1.534,-7.914C-1.361,-8.465,-0.635,-8.575,-0.305,-8.101C-0.305,-8.101,2.591,-3.936,2.591,-3.936C2.591,-3.936,7.638,-3.963,7.638,-3.963C8.212,-3.967,8.544,-3.305,8.198,-2.845C8.198,-2.845,5.164,1.199,5.164,1.199C5.164,1.199,6.766,6.016,6.766,6.016C6.948,6.565,6.427,7.083,5.882,6.894C5.882,6.894,1.111,5.229,1.111,5.229C1.111,5.229,-2.946,8.234,-2.946,8.234C-3.407,8.575,-4.062,8.235,-4.052,7.658C-4.052,7.658,-3.966,2.584,-3.966,2.584C-3.966,2.584,-8.076,-0.376,-8.076,-0.376C-8.543,-0.714,-8.425,-1.442,-7.876,-1.61Z" /></g></g></g><g><g transform="translate(94.853,28.74)"><g id="i25" transform="scale(0,0)"><animateTransform repeatCount="indefinite" type="scale" attributeName="transform" dur="1.8s" begin="0s" calcMode="spline" values="0 0; 0 0; 0.917 0.917; 0.97 0.97; 0 0; 0 0" keyTimes="0; 0.148148; 0.314815; 0.481482; 0.759259; 1" keySplines="0 0 1 1; 0.167 0.167 0.734 0.851; 0.172 1 0.704 1; 0.578 0.083 0.85 0.823; 0 0 1 1" fill="freeze" /><path fill="#ed876b" d="M-7.876,-1.611C-7.876,-1.611,-3.052,-3.081,-3.052,-3.081C-3.052,-3.081,-1.534,-7.914,-1.534,-7.914C-1.362,-8.465,-0.635,-8.576,-0.305,-8.102C-0.305,-8.102,2.592,-3.937,2.592,-3.937C2.592,-3.937,7.637,-3.964,7.637,-3.964C8.212,-3.968,8.543,-3.307,8.198,-2.846C8.198,-2.846,5.165,1.198,5.165,1.198C5.165,1.198,6.765,6.016,6.765,6.016C6.948,6.564,6.426,7.083,5.883,6.893C5.883,6.893,1.109,5.229,1.109,5.229C1.109,5.229,-2.945,8.232,-2.945,8.232C-3.407,8.575,-4.061,8.234,-4.051,7.656C-4.051,7.656,-3.967,2.583,-3.967,2.583C-3.967,2.583,-8.076,-0.377,-8.076,-0.377C-8.543,-0.715,-8.426,-1.444,-7.876,-1.611Z" /></g></g></g><g><g transform="translate(512.989,636.017)"><g id="i26" transform="scale(0,0)"><animateTransform repeatCount="indefinite" type="scale" attributeName="transform" dur="1.8s" begin="0s" calcMode="spline" values="0 0; 0 0; 0.917 0.917; 0.97 0.97; 0 0; 0 0" keyTimes="0; 0.148148; 0.314815; 0.481482; 0.759259; 1" keySplines="0 0 1 1; 0.167 0.167 0.734 0.851; 0.172 1 0.704 1; 0.578 0.083 0.85 0.823; 0 0 1 1" fill="freeze" /><path fill="#ed876b" d="M-7.876,-1.61C-7.876,-1.61,-3.052,-3.08,-3.052,-3.08C-3.052,-3.08,-1.536,-7.915,-1.536,-7.915C-1.363,-8.465,-0.635,-8.576,-0.305,-8.101C-0.305,-8.101,2.591,-3.937,2.591,-3.937C2.591,-3.937,7.636,-3.964,7.636,-3.964C8.211,-3.967,8.544,-3.306,8.197,-2.845C8.197,-2.845,5.164,1.199,5.164,1.199C5.164,1.199,6.763,6.016,6.763,6.016C6.946,6.565,6.425,7.084,5.882,6.894C5.882,6.894,1.109,5.229,1.109,5.229C1.109,5.229,-2.946,8.233,-2.946,8.233C-3.408,8.576,-4.061,8.235,-4.052,7.657C-4.052,7.657,-3.967,2.584,-3.967,2.584C-3.967,2.584,-8.076,-0.376,-8.076,-0.376C-8.543,-0.714,-8.426,-1.443,-7.876,-1.61Z" /></g></g></g><g><g transform="translate(715.385,755.942)"><g id="i27" transform="scale(0,0)"><animateTransform repeatCount="indefinite" type="scale" attributeName="transform" dur="1.8s" begin="0s" calcMode="spline" values="0 0; 0 0; 0.917 0.917; 0.97 0.97; 0 0; 0 0" keyTimes="0; 0.148148; 0.314815; 0.481482; 0.759259; 1" keySplines="0 0 1 1; 0.167 0.167 0.734 0.851; 0.172 1 0.704 1; 0.578 0.083 0.85 0.823; 0 0 1 1" fill="freeze" /><path fill="#ed876b" d="M-12.868,-2.632C-12.868,-2.632,-4.985,-5.033,-4.985,-5.033C-4.985,-5.033,-2.508,-12.932,-2.508,-12.932C-2.225,-13.832,-1.04,-14.011,-0.5,-13.236C-0.5,-13.236,4.234,-6.432,4.234,-6.432C4.234,-6.432,12.477,-6.476,12.477,-6.476C13.415,-6.482,13.958,-5.402,13.393,-4.649C13.393,-4.649,8.437,1.957,8.437,1.957C8.437,1.957,11.052,9.829,11.052,9.829C11.35,10.725,10.497,11.572,9.609,11.263C9.609,11.263,1.813,8.542,1.813,8.542C1.813,8.542,-4.813,13.451,-4.813,13.451C-5.568,14.01,-6.636,13.454,-6.62,12.51C-6.62,12.51,-6.482,4.222,-6.482,4.222C-6.482,4.222,-13.195,-0.615,-13.195,-0.615C-13.958,-1.166,-13.765,-2.358,-12.868,-2.632Z" /></g></g></g><g><g transform="translate(640.689,693.969)"><g id="i28" transform="scale(0,0)"><animateTransform repeatCount="indefinite" type="scale" attributeName="transform" dur="1.8s" begin="0s" calcMode="spline" values="0 0; 0 0; 0.917 0.917; 0.97 0.97; 0 0; 0 0" keyTimes="0; 0.148148; 0.314815; 0.481482; 0.759259; 1" keySplines="0 0 1 1; 0.167 0.167 0.734 0.851; 0.172 1 0.704 1; 0.578 0.083 0.85 0.823; 0 0 1 1" fill="freeze" /><path fill="#ed876b" d="M-6.504,-3.909C-6.504,-3.909,-2.151,-3.63,-2.151,-3.63C-2.151,-3.63,0.533,-7.078,0.533,-7.078C0.838,-7.47,1.46,-7.338,1.585,-6.855C1.585,-6.855,2.681,-2.607,2.681,-2.607C2.681,-2.607,6.78,-1.094,6.78,-1.094C7.246,-0.921,7.317,-0.287,6.898,-0.02C6.898,-0.02,3.223,2.328,3.223,2.328C3.223,2.328,3.072,6.711,3.072,6.711C3.055,7.21,2.475,7.47,2.091,7.151C2.091,7.151,-1.276,4.354,-1.276,4.354C-1.276,4.354,-5.467,5.55,-5.467,5.55C-5.945,5.686,-6.372,5.213,-6.191,4.749C-6.191,4.749,-4.597,0.672,-4.597,0.672C-4.597,0.672,-7.037,-2.971,-7.037,-2.971C-7.316,-3.386,-7,-3.941,-6.504,-3.909Z" /></g></g></g><g><g transform="translate(711.789,661.854)"><g id="i29" transform="scale(0,0)"><animateTransform repeatCount="indefinite" type="scale" attributeName="transform" dur="1.8s" begin="0s" calcMode="spline" values="0 0; 0 0; 0.917 0.917; 0.97 0.97; 0 0; 0 0" keyTimes="0; 0.148148; 0.314815; 0.481482; 0.759259; 1" keySplines="0 0 1 1; 0.167 0.167 0.734 0.851; 0.172 1 0.704 1; 0.578 0.083 0.85 0.823; 0 0 1 1" fill="freeze" /><path fill="#ed876b" d="M-11.081,-6.657C-11.081,-6.657,-3.666,-6.183,-3.666,-6.183C-3.666,-6.183,0.904,-12.056,0.904,-12.056C1.425,-12.724,2.485,-12.5,2.697,-11.676C2.697,-11.676,4.564,-4.44,4.564,-4.44C4.564,-4.44,11.546,-1.864,11.546,-1.864C12.342,-1.57,12.46,-0.489,11.747,-0.033C11.747,-0.033,5.487,3.965,5.487,3.965C5.487,3.965,5.231,11.429,5.231,11.429C5.201,12.28,4.215,12.724,3.562,12.181C3.562,12.181,-2.175,7.416,-2.175,7.416C-2.175,7.416,-9.315,9.454,-9.315,9.454C-10.128,9.686,-10.856,8.878,-10.546,8.088C-10.546,8.088,-7.831,1.144,-7.831,1.144C-7.831,1.144,-11.988,-5.061,-11.988,-5.061C-12.461,-5.768,-11.925,-6.711,-11.081,-6.657Z" /></g></g></g><g><g transform="translate(753.913,703.622)"><g id="i30" transform="scale(0,0)"><animateTransform repeatCount="indefinite" type="scale" attributeName="transform" dur="1.8s" begin="0s" calcMode="spline" values="0 0; 0 0; 0.917 0.917; 0.97 0.97; 0 0; 0 0" keyTimes="0; 0.203704; 0.370371; 0.537037; 0.759259; 1" keySplines="0 0 1 1; 0.167 0.167 0.734 0.851; 0.172 1 0.704 1; 0.578 0.066 0.85 0.859; 0 0 1 1" fill="freeze" /><path fill="#ed876b" d="M-5.275,-3.169C-5.275,-3.169,-1.745,-2.944,-1.745,-2.944C-1.745,-2.944,0.431,-5.74,0.431,-5.74C0.679,-6.058,1.183,-5.951,1.285,-5.559C1.285,-5.559,2.174,-2.114,2.174,-2.114C2.174,-2.114,5.498,-0.887,5.498,-0.887C5.876,-0.748,5.933,-0.233,5.593,-0.015C5.593,-0.015,2.613,1.888,2.613,1.888C2.613,1.888,2.491,5.441,2.491,5.441C2.476,5.847,2.007,6.058,1.696,5.8C1.696,5.8,-1.035,3.531,-1.035,3.531C-1.035,3.531,-4.434,4.501,-4.434,4.501C-4.821,4.612,-5.168,4.228,-5.02,3.851C-5.02,3.851,-3.728,0.545,-3.728,0.545C-3.728,0.545,-5.707,-2.409,-5.707,-2.409C-5.933,-2.746,-5.677,-3.195,-5.275,-3.169Z" /></g></g></g><g><g transform="translate(786.252,630.999)"><g id="i31" transform="scale(0,0)"><animateTransform repeatCount="indefinite" type="scale" attributeName="transform" dur="1.8s" begin="0s" calcMode="spline" values="0 0; 0 0; 0.917 0.917; 0.97 0.97; 0 0; 0 0" keyTimes="0; 0.240741; 0.407407; 0.574074; 0.796296; 1" keySplines="0 0 1 1; 0.167 0.167 0.734 0.851; 0.172 1 0.704 1; 0.578 0.066 0.85 0.859; 0 0 1 1" fill="freeze" /><path fill="#ed876b" d="M-5.275,-3.169C-5.275,-3.169,-1.745,-2.943,-1.745,-2.943C-1.745,-2.943,0.431,-5.739,0.431,-5.739C0.678,-6.058,1.183,-5.951,1.285,-5.559C1.285,-5.559,2.174,-2.114,2.174,-2.114C2.174,-2.114,5.498,-0.887,5.498,-0.887C5.875,-0.747,5.932,-0.232,5.593,-0.015C5.593,-0.015,2.613,1.888,2.613,1.888C2.613,1.888,2.49,5.442,2.49,5.442C2.477,5.847,2.007,6.058,1.696,5.8C1.696,5.8,-1.036,3.532,-1.036,3.532C-1.036,3.532,-4.434,4.501,-4.434,4.501C-4.822,4.612,-5.168,4.228,-5.02,3.851C-5.02,3.851,-3.729,0.546,-3.729,0.546C-3.729,0.546,-5.707,-2.409,-5.707,-2.409C-5.932,-2.746,-5.678,-3.194,-5.275,-3.169Z" /></g></g></g><g><g transform="translate(819.207,587.224)"><g id="i32" transform="scale(0,0)"><animateTransform repeatCount="indefinite" type="scale" attributeName="transform" dur="1.8s" begin="0s" calcMode="spline" values="0 0; 0 0; 0.917 0.917; 0.97 0.97; 0 0; 0 0" keyTimes="0; 0.203704; 0.370371; 0.537037; 0.759259; 1" keySplines="0 0 1 1; 0.167 0.167 0.734 0.851; 0.172 1 0.704 1; 0.578 0.066 0.85 0.859; 0 0 1 1" fill="freeze" /><path fill="#ed876b" d="M-5.275,-3.169C-5.275,-3.169,-1.745,-2.945,-1.745,-2.945C-1.745,-2.945,0.432,-5.74,0.432,-5.74C0.679,-6.059,1.184,-5.952,1.285,-5.56C1.285,-5.56,2.174,-2.115,2.174,-2.115C2.174,-2.115,5.497,-0.888,5.497,-0.888C5.875,-0.748,5.933,-0.233,5.593,-0.016C5.593,-0.016,2.612,1.888,2.612,1.888C2.612,1.888,2.491,5.441,2.491,5.441C2.478,5.846,2.006,6.058,1.695,5.799C1.695,5.799,-1.035,3.53,-1.035,3.53C-1.035,3.53,-4.433,4.5,-4.433,4.5C-4.821,4.611,-5.168,4.227,-5.021,3.851C-5.021,3.851,-3.728,0.544,-3.728,0.544C-3.728,0.544,-5.706,-2.411,-5.706,-2.411C-5.932,-2.746,-5.677,-3.195,-5.275,-3.169Z" /></g></g></g><g><g transform="translate(828.977,466.883)"><g id="i33" transform="scale(0,0)"><animateTransform repeatCount="indefinite" type="scale" attributeName="transform" dur="1.8s" begin="0s" calcMode="spline" values="0 0; 0 0; 0.917 0.917; 0.97 0.97; 0 0; 0 0" keyTimes="0; 0.148148; 0.314815; 0.481482; 0.703704; 1" keySplines="0 0 1 1; 0.167 0.167 0.734 0.851; 0.172 1 0.704 1; 0.578 0.066 0.85 0.859; 0 0 1 1" fill="freeze" /><path fill="#ed876b" d="M-5.275,-3.169C-5.275,-3.169,-1.745,-2.944,-1.745,-2.944C-1.745,-2.944,0.431,-5.739,0.431,-5.739C0.679,-6.058,1.184,-5.951,1.286,-5.559C1.286,-5.559,2.174,-2.114,2.174,-2.114C2.174,-2.114,5.497,-0.887,5.497,-0.887C5.875,-0.748,5.933,-0.232,5.594,-0.016C5.594,-0.016,2.612,1.888,2.612,1.888C2.612,1.888,2.491,5.442,2.491,5.442C2.476,5.847,2.006,6.058,1.695,5.8C1.695,5.8,-1.035,3.531,-1.035,3.531C-1.035,3.531,-4.433,4.501,-4.433,4.501C-4.821,4.612,-5.168,4.227,-5.021,3.851C-5.021,3.851,-3.728,0.545,-3.728,0.545C-3.728,0.545,-5.706,-2.41,-5.706,-2.41C-5.932,-2.745,-5.677,-3.195,-5.275,-3.169Z" /></g></g></g><g><g transform="translate(758.196,246.687)"><g id="i34" transform="scale(0,0)"><animateTransform repeatCount="indefinite" type="scale" attributeName="transform" dur="1.8s" begin="0s" calcMode="spline" values="0 0; 0 0; 0.917 0.917; 0.97 0.97; 0 0; 0 0" keyTimes="0; 0.185185; 0.351852; 0.518518; 0.740741; 1" keySplines="0 0 1 1; 0.167 0.167 0.734 0.851; 0.172 1 0.704 1; 0.578 0.066 0.85 0.859; 0 0 1 1" fill="freeze" /><path fill="#ed876b" d="M-5.276,-3.169C-5.276,-3.169,-1.746,-2.943,-1.746,-2.943C-1.746,-2.943,0.431,-5.739,0.431,-5.739C0.678,-6.058,1.183,-5.951,1.284,-5.559C1.284,-5.559,2.173,-2.114,2.173,-2.114C2.173,-2.114,5.497,-0.887,5.497,-0.887C5.875,-0.748,5.932,-0.233,5.592,-0.015C5.592,-0.015,2.612,1.888,2.612,1.888C2.612,1.888,2.49,5.442,2.49,5.442C2.477,5.846,2.006,6.058,1.695,5.8C1.695,5.8,-1.036,3.531,-1.036,3.531C-1.036,3.531,-4.435,4.501,-4.435,4.501C-4.822,4.612,-5.168,4.227,-5.021,3.851C-5.021,3.851,-3.729,0.545,-3.729,0.545C-3.729,0.545,-5.708,-2.409,-5.708,-2.409C-5.932,-2.746,-5.678,-3.195,-5.276,-3.169Z" /></g></g></g><g><g transform="translate(417.956,114.225)"><g id="i2" transform="scale(0,0)"><animateTransform repeatCount="indefinite" type="scale" attributeName="transform" dur="1.8s" begin="0s" calcMode="spline" values="0 0; 0 0; 0.917 0.917; 0.97 0.97; 0 0; 0 0" keyTimes="0; 0.148148; 0.314815; 0.425926; 0.574074; 1" keySplines="0 0 1 1; 0.167 0.167 0.734 0.851; 0.172 1 0.704 1; 0.578 0.044 0.85 0.906; 0 0 1 1" fill="freeze" /><path fill="#ed876b" d="M-5.275,-3.169C-5.275,-3.169,-1.745,-2.944,-1.745,-2.944C-1.745,-2.944,0.431,-5.74,0.431,-5.74C0.679,-6.058,1.184,-5.951,1.285,-5.559C1.285,-5.559,2.174,-2.114,2.174,-2.114C2.174,-2.114,5.497,-0.887,5.497,-0.887C5.875,-0.747,5.933,-0.233,5.593,-0.016C5.593,-0.016,2.612,1.888,2.612,1.888C2.612,1.888,2.491,5.442,2.491,5.442C2.477,5.846,2.006,6.058,1.695,5.8C1.695,5.8,-1.035,3.531,-1.035,3.531C-1.035,3.531,-4.435,4.501,-4.435,4.501C-4.822,4.612,-5.168,4.227,-5.021,3.851C-5.021,3.851,-3.728,0.545,-3.728,0.545C-3.728,0.545,-5.707,-2.409,-5.707,-2.409C-5.932,-2.746,-5.677,-3.195,-5.275,-3.169Z" /></g></g></g><g><g transform="translate(231.247,216.071)"><g id="i3" transform="scale(0,0)"><animateTransform repeatCount="indefinite" type="scale" attributeName="transform" dur="1.8s" begin="0s" calcMode="spline" values="0 0; 0 0; 0.917 0.917; 0.97 0.97; 0 0; 0 0" keyTimes="0; 0.148148; 0.314815; 0.425926; 0.62963; 1" keySplines="0 0 1 1; 0.167 0.167 0.734 0.851; 0.172 1 0.704 1; 0.578 0.061 0.85 0.87; 0 0 1 1" fill="freeze" /><path fill="#ed876b" d="M-5.274,-3.169C-5.274,-3.169,-1.744,-2.944,-1.744,-2.944C-1.744,-2.944,0.431,-5.74,0.431,-5.74C0.679,-6.058,1.184,-5.951,1.285,-5.558C1.285,-5.558,2.174,-2.113,2.174,-2.113C2.174,-2.113,5.499,-0.888,5.499,-0.888C5.877,-0.748,5.932,-0.232,5.592,-0.016C5.592,-0.016,2.613,1.888,2.613,1.888C2.613,1.888,2.491,5.442,2.491,5.442C2.477,5.847,2.008,6.058,1.697,5.799C1.697,5.799,-1.035,3.531,-1.035,3.531C-1.035,3.531,-4.434,4.501,-4.434,4.501C-4.822,4.612,-5.167,4.227,-5.021,3.851C-5.021,3.851,-3.728,0.545,-3.728,0.545C-3.728,0.545,-5.706,-2.409,-5.706,-2.409C-5.932,-2.746,-5.676,-3.195,-5.274,-3.169Z" /></g></g></g><g><g transform="translate(706.205,117.696)"><g id="i4" transform="scale(0,0)"><animateTransform repeatCount="indefinite" type="scale" attributeName="transform" dur="1.8s" begin="0s" calcMode="spline" values="0 0; 0 0; 0.917 0.917; 0.97 0.97; 0 0; 0 0" keyTimes="0; 0.203704; 0.314815; 0.481482; 0.685186; 1" keySplines="0 0 1 1; 0.167 0.167 0.734 0.901; 0.172 1 0.704 1; 0.578 0.061 0.85 0.87; 0 0 1 1" fill="freeze" /><path fill="#ed876b" d="M-5.275,-3.169C-5.275,-3.169,-1.745,-2.944,-1.745,-2.944C-1.745,-2.944,0.431,-5.74,0.431,-5.74C0.679,-6.058,1.184,-5.951,1.285,-5.559C1.285,-5.559,2.174,-2.114,2.174,-2.114C2.174,-2.114,5.497,-0.887,5.497,-0.887C5.875,-0.747,5.933,-0.233,5.593,-0.016C5.593,-0.016,2.612,1.888,2.612,1.888C2.612,1.888,2.49,5.442,2.49,5.442C2.478,5.846,2.006,6.058,1.695,5.8C1.695,5.8,-1.035,3.531,-1.035,3.531C-1.035,3.531,-4.435,4.501,-4.435,4.501C-4.822,4.612,-5.168,4.227,-5.021,3.851C-5.021,3.851,-3.728,0.545,-3.728,0.545C-3.728,0.545,-5.707,-2.409,-5.707,-2.409C-5.932,-2.745,-5.677,-3.195,-5.275,-3.169Z" /></g></g></g><g><g transform="translate(624.589,102.969)"><g id="i5" transform="scale(0,0)"><animateTransform repeatCount="indefinite" type="scale" attributeName="transform" dur="1.8s" begin="0s" calcMode="spline" values="0 0; 0 0; 0.917 0.917; 0.97 0.97; 0 0; 0 0" keyTimes="0; 0.148148; 0.314815; 0.481482; 0.759259; 1" keySplines="0 0 1 1; 0.167 0.167 0.734 0.851; 0.172 1 0.704 1; 0.578 0.083 0.85 0.823; 0 0 1 1" fill="freeze" /><path fill="#ed876b" d="M-5.275,-3.169C-5.275,-3.169,-1.745,-2.943,-1.745,-2.943C-1.745,-2.943,0.43,-5.739,0.43,-5.739C0.678,-6.058,1.183,-5.951,1.283,-5.559C1.283,-5.559,2.173,-2.113,2.173,-2.113C2.173,-2.113,5.498,-0.887,5.498,-0.887C5.876,-0.748,5.932,-0.232,5.592,-0.015C5.592,-0.015,2.612,1.889,2.612,1.889C2.612,1.889,2.49,5.442,2.49,5.442C2.476,5.847,2.007,6.058,1.696,5.8C1.696,5.8,-1.035,3.531,-1.035,3.531C-1.035,3.531,-4.434,4.501,-4.434,4.501C-4.822,4.612,-5.168,4.228,-5.022,3.851C-5.022,3.851,-3.728,0.545,-3.728,0.545C-3.728,0.545,-5.707,-2.409,-5.707,-2.409C-5.932,-2.745,-5.677,-3.195,-5.275,-3.169Z" /></g></g></g><g><g transform="translate(682.236,75.127)"><g id="i6" transform="scale(0,0)"><animateTransform repeatCount="indefinite" type="scale" attributeName="transform" dur="1.8s" begin="0s" calcMode="spline" values="0 0; 0 0; 0.917 0.917; 0.97 0.97; 0 0; 0 0" keyTimes="0; 0.148148; 0.314815; 0.481482; 0.759259; 1" keySplines="0 0 1 1; 0.167 0.167 0.734 0.851; 0.172 1 0.704 1; 0.578 0.083 0.85 0.823; 0 0 1 1" fill="freeze" /><path fill="#ed876b" d="M-10.361,-6.226C-10.361,-6.226,-3.427,-5.782,-3.427,-5.782C-3.427,-5.782,0.848,-11.274,0.848,-11.274C1.334,-11.899,2.324,-11.689,2.523,-10.919C2.523,-10.919,4.271,-4.152,4.271,-4.152C4.271,-4.152,10.799,-1.742,10.799,-1.742C11.542,-1.468,11.653,-0.457,10.987,-0.031C10.987,-0.031,5.132,3.708,5.132,3.708C5.132,3.708,4.893,10.688,4.893,10.688C4.866,11.483,3.943,11.899,3.333,11.391C3.333,11.391,-2.034,6.935,-2.034,6.935C-2.034,6.935,-8.709,8.841,-8.709,8.841C-9.47,9.058,-10.15,8.303,-9.862,7.563C-9.862,7.563,-7.323,1.07,-7.323,1.07C-7.323,1.07,-11.209,-4.732,-11.209,-4.732C-11.652,-5.393,-11.151,-6.276,-10.361,-6.226Z" /></g></g></g><g><g transform="translate(786.66,184.794)"><g id="i7" transform="scale(0,0)"><animateTransform repeatCount="indefinite" type="scale" attributeName="transform" dur="1.8s" begin="0s" calcMode="spline" values="0 0; 0 0; 0.917 0.917; 0.97 0.97; 0 0; 0 0" keyTimes="0; 0.148148; 0.314815; 0.481482; 0.759259; 1" keySplines="0 0 1 1; 0.167 0.167 0.734 0.851; 0.172 1 0.704 1; 0.578 0.083 0.85 0.823; 0 0 1 1" fill="freeze" /><path fill="#ed876b" d="M-7.64,-10.532C-7.64,-10.532,-0.965,-7.738,-0.965,-7.738C-0.965,-7.738,5.088,-11.678,5.088,-11.678C5.779,-12.127,6.683,-11.583,6.619,-10.759C6.619,-10.759,6.062,-3.522,6.062,-3.522C6.062,-3.522,11.678,1.064,11.678,1.064C12.318,1.585,12.086,2.617,11.286,2.809C11.286,2.809,4.268,4.488,4.268,4.488C4.268,4.488,1.685,11.262,1.685,11.262C1.391,12.034,0.344,12.127,-0.087,11.421C-0.087,11.421,-3.868,5.222,-3.868,5.222C-3.868,5.222,-11.08,4.822,-11.08,4.822C-11.902,4.776,-12.318,3.804,-11.784,3.176C-11.784,3.176,-7.103,-2.335,-7.103,-2.335C-7.103,-2.335,-8.977,-9.355,-8.977,-9.355C-9.19,-10.154,-8.4,-10.85,-7.64,-10.532Z" /></g></g></g><g><g transform="translate(209.452,73.078)"><g id="i8" transform="scale(0,0)"><animateTransform repeatCount="indefinite" type="scale" attributeName="transform" dur="1.8s" begin="0s" calcMode="spline" values="0 0; 0 0; 0.917 0.917; 0.97 0.97; 0 0; 0 0" keyTimes="0; 0.148148; 0.314815; 0.481482; 0.759259; 1" keySplines="0 0 1 1; 0.167 0.167 0.734 0.851; 0.172 1 0.704 1; 0.578 0.083 0.85 0.823; 0 0 1 1" fill="freeze" /><path fill="#ed876b" d="M-7.639,-10.532C-7.639,-10.532,-0.964,-7.74,-0.964,-7.74C-0.964,-7.74,5.089,-11.678,5.089,-11.678C5.778,-12.127,6.682,-11.584,6.619,-10.759C6.619,-10.759,6.063,-3.522,6.063,-3.522C6.063,-3.522,11.678,1.063,11.678,1.063C12.317,1.586,12.086,2.617,11.287,2.808C11.287,2.808,4.268,4.489,4.268,4.489C4.268,4.489,1.685,11.261,1.685,11.261C1.391,12.032,0.344,12.127,-0.087,11.421C-0.087,11.421,-3.869,5.221,-3.869,5.221C-3.869,5.221,-11.079,4.821,-11.079,4.821C-11.902,4.776,-12.317,3.804,-11.784,3.176C-11.784,3.176,-7.102,-2.336,-7.102,-2.336C-7.102,-2.336,-8.976,-9.355,-8.976,-9.355C-9.189,-10.155,-8.4,-10.85,-7.639,-10.532Z" /></g></g></g><g><g transform="translate(845.704,540.753)"><g id="i9" transform="scale(0,0)"><animateTransform repeatCount="indefinite" type="scale" attributeName="transform" dur="1.8s" begin="0s" calcMode="spline" values="0 0; 0 0; 0.917 0.917; 0.97 0.97; 0 0; 0 0" keyTimes="0; 0.203704; 0.37037; 0.537038; 0.814815; 1" keySplines="0 0 1 1; 0.167 0.167 0.734 0.851; 0.172 1 0.704 1; 0.578 0.083 0.85 0.823; 0 0 1 1" fill="freeze" /><path fill="#ed876b" d="M-8.149,-4.896C-8.149,-4.896,-2.695,-4.548,-2.695,-4.548C-2.695,-4.548,0.666,-8.867,0.666,-8.867C1.049,-9.359,1.828,-9.194,1.985,-8.588C1.985,-8.588,3.359,-3.265,3.359,-3.265C3.359,-3.265,8.493,-1.371,8.493,-1.371C9.078,-1.155,9.165,-0.359,8.641,-0.024C8.641,-0.024,4.036,2.917,4.036,2.917C4.036,2.917,3.847,8.407,3.847,8.407C3.826,9.032,3.101,9.359,2.62,8.96C2.62,8.96,-1.599,5.455,-1.599,5.455C-1.599,5.455,-6.85,6.954,-6.85,6.954C-7.448,7.124,-7.984,6.531,-7.756,5.949C-7.756,5.949,-5.76,0.842,-5.76,0.842C-5.76,0.842,-8.817,-3.722,-8.817,-3.722C-9.165,-4.242,-8.77,-4.936,-8.149,-4.896Z" /></g></g></g><g><g transform="translate(764.863,495.849)"><g id="i10" transform="scale(0,0)"><animateTransform repeatCount="indefinite" type="scale" attributeName="transform" dur="1.8s" begin="0s" calcMode="spline" values="0 0; 0 0; 0.917 0.917; 0.97 0.97; 0 0; 0 0" keyTimes="0; 0.203704; 0.37037; 0.537038; 0.814815; 1" keySplines="0 0 1 1; 0.167 0.167 0.734 0.851; 0.172 1 0.704 1; 0.578 0.083 0.85 0.823; 0 0 1 1" fill="freeze" /><path fill="#ed876b" d="M-4.311,-2.59C-4.311,-2.59,-1.427,-2.406,-1.427,-2.406C-1.427,-2.406,0.352,-4.691,0.352,-4.691C0.555,-4.951,0.967,-4.863,1.05,-4.543C1.05,-4.543,1.776,-1.727,1.776,-1.727C1.776,-1.727,4.493,-0.725,4.493,-0.725C4.802,-0.611,4.849,-0.19,4.571,-0.013C4.571,-0.013,2.135,1.543,2.135,1.543C2.135,1.543,2.035,4.447,2.035,4.447C2.024,4.778,1.64,4.951,1.386,4.74C1.386,4.74,-0.847,2.885,-0.847,2.885C-0.847,2.885,-3.624,3.679,-3.624,3.679C-3.941,3.769,-4.224,3.454,-4.104,3.147C-4.104,3.147,-3.047,0.445,-3.047,0.445C-3.047,0.445,-4.665,-1.969,-4.665,-1.969C-4.849,-2.244,-4.64,-2.611,-4.311,-2.59Z" /></g></g></g><g><g transform="translate(859.705,367.283)"><g id="i11" transform="scale(0,0)"><animateTransform repeatCount="indefinite" type="scale" attributeName="transform" dur="1.8s" begin="0s" calcMode="spline" values="0 0; 0 0; 0.917 0.917; 0.97 0.97; 0 0; 0 0" keyTimes="0; 0.203704; 0.37037; 0.537038; 0.814815; 1" keySplines="0 0 1 1; 0.167 0.167 0.734 0.851; 0.172 1 0.704 1; 0.578 0.083 0.85 0.823; 0 0 1 1" fill="freeze" /><path fill="#ed876b" d="M-4.312,-2.59C-4.312,-2.59,-1.427,-2.406,-1.427,-2.406C-1.427,-2.406,0.353,-4.691,0.353,-4.691C0.555,-4.951,0.967,-4.864,1.05,-4.543C1.05,-4.543,1.776,-1.727,1.776,-1.727C1.776,-1.727,4.493,-0.725,4.493,-0.725C4.802,-0.611,4.848,-0.19,4.571,-0.013C4.571,-0.013,2.134,1.543,2.134,1.543C2.134,1.543,2.034,4.448,2.034,4.448C2.024,4.778,1.64,4.951,1.385,4.74C1.385,4.74,-0.846,2.886,-0.846,2.886C-0.846,2.886,-3.624,3.678,-3.624,3.678C-3.94,3.769,-4.224,3.455,-4.103,3.147C-4.103,3.147,-3.048,0.446,-3.048,0.446C-3.048,0.446,-4.664,-1.969,-4.664,-1.969C-4.848,-2.244,-4.64,-2.611,-4.312,-2.59Z" /></g></g></g><g><g transform="translate(597.417,809.885)"><g id="i12" transform="scale(0,0)"><animateTransform repeatCount="indefinite" type="scale" attributeName="transform" dur="1.8s" begin="0s" calcMode="spline" values="0 0; 0 0; 0.917 0.917; 0.97 0.97; 0 0; 0 0" keyTimes="0; 0.203704; 0.37037; 0.537038; 0.814815; 1" keySplines="0 0 1 1; 0.167 0.167 0.734 0.851; 0.172 1 0.704 1; 0.578 0.083 0.85 0.823; 0 0 1 1" fill="freeze" /><path fill="#ed876b" d="M-9.365,-10.1C-9.365,-10.1,-2.032,-7.798,-2.032,-7.798C-2.032,-7.798,3.99,-12.561,3.99,-12.561C4.676,-13.104,5.685,-12.618,5.698,-11.738C5.698,-11.738,5.811,-4.022,5.811,-4.022C5.811,-4.022,12.197,0.281,12.197,0.281C12.924,0.771,12.779,1.885,11.952,2.167C11.952,2.167,4.689,4.634,4.689,4.634C4.689,4.634,2.614,12.057,2.614,12.057C2.378,12.902,1.279,13.104,0.754,12.4C0.754,12.4,-3.847,6.207,-3.847,6.207C-3.847,6.207,-11.515,6.492,-11.515,6.492C-12.389,6.525,-12.924,5.536,-12.42,4.819C-12.42,4.819,-8.002,-1.475,-8.002,-1.475C-8.002,-1.475,-10.665,-8.722,-10.665,-8.722C-10.969,-9.547,-10.201,-10.361,-9.365,-10.1Z" /></g></g></g><g><g transform="translate(164.994,560.377)"><g id="i13" transform="scale(0,0)"><animateTransform repeatCount="indefinite" type="scale" attributeName="transform" dur="1.8s" begin="0s" calcMode="spline" values="0 0; 0 0; 0.917 0.917; 0.97 0.97; 0 0; 0 0" keyTimes="0; 0.148148; 0.314815; 0.481482; 0.759259; 1" keySplines="0 0 1 1; 0.167 0.167 0.734 0.851; 0.172 1 0.704 1; 0.578 0.083 0.85 0.823; 0 0 1 1" fill="freeze" /><path fill="#ed876b" d="M-2.884,4.729C-2.884,4.729,-2.652,1.55,-2.652,1.55C-2.652,1.55,-5.124,-0.454,-5.124,-0.454C-5.406,-0.681,-5.305,-1.134,-4.954,-1.22C-4.954,-1.22,-1.876,-1.969,-1.876,-1.969C-1.876,-1.969,-0.755,-4.945,-0.755,-4.945C-0.626,-5.285,-0.167,-5.328,0.023,-5.018C0.023,-5.018,1.693,-2.304,1.693,-2.304C1.693,-2.304,4.861,-2.14,4.861,-2.14C5.222,-2.121,5.406,-1.695,5.172,-1.418C5.172,-1.418,3.126,1.009,3.126,1.009C3.126,1.009,3.96,4.087,3.96,4.087C4.056,4.438,3.708,4.744,3.374,4.606C3.374,4.606,0.441,3.39,0.441,3.39C0.441,3.39,-2.21,5.129,-2.21,5.129C-2.512,5.328,-2.91,5.091,-2.884,4.729Z" /></g></g></g><g><g transform="translate(68.516,448.815)"><g id="i14" transform="scale(0,0)"><animateTransform repeatCount="indefinite" type="scale" attributeName="transform" dur="1.8s" begin="0s" calcMode="spline" values="0 0; 0 0; 0.917 0.917; 0.97 0.97; 0 0; 0 0" keyTimes="0; 0.129629; 0.296296; 0.462963; 0.740741; 1" keySplines="0 0 1 1; 0.167 0.167 0.734 0.851; 0.172 1 0.704 1; 0.578 0.083 0.85 0.823; 0 0 1 1" fill="freeze" /><path fill="#ed876b" d="M-2.883,4.729C-2.883,4.729,-2.65,1.551,-2.65,1.551C-2.65,1.551,-5.124,-0.453,-5.124,-0.453C-5.405,-0.681,-5.305,-1.134,-4.954,-1.219C-4.954,-1.219,-1.876,-1.969,-1.876,-1.969C-1.876,-1.969,-0.753,-4.945,-0.753,-4.945C-0.624,-5.284,-0.166,-5.328,0.025,-5.018C0.025,-5.018,1.695,-2.304,1.695,-2.304C1.695,-2.304,4.861,-2.139,4.861,-2.139C5.222,-2.121,5.405,-1.695,5.173,-1.418C5.173,-1.418,3.127,1.009,3.127,1.009C3.127,1.009,3.96,4.088,3.96,4.088C4.055,4.438,3.71,4.744,3.375,4.606C3.375,4.606,0.441,3.391,0.441,3.391C0.441,3.391,-2.21,5.13,-2.21,5.13C-2.512,5.328,-2.91,5.091,-2.883,4.729Z" /></g></g></g></g></g></g></g><g visibility="hidden" id="i35"><animate repeatCount="indefinite" begin="0s" calcMode="discrete" dur="1.8s" values="hidden; visible; visible" keyTimes="0; 0.241; 1" attributeName="visibility" /><g transform="translate(516.801,536.546)"><g transform="scale(0.8,0.8)"><animateTransform repeatCount="indefinite" type="scale" attributeName="transform" dur="1.8s" begin="0s" calcMode="spline" values="0.8 0.8; 0.8 0.8; 1 1; 1 1" keyTimes="0; 0.240741; 0.740741; 1" keySplines="0 0 1 1; 0.167 0.167 0 1; 0 0 1 1" fill="freeze" /><g transform="translate(-410.919,-404.788)"><g><g transform="translate(253.623,36.372)"><g id="i2" transform="scale(0,0)"><animateTransform repeatCount="indefinite" type="scale" attributeName="transform" dur="1.8s" begin="0s" calcMode="spline" values="0 0; 0 0; 0.917 0.917; 0.97 0.97; 0 0; 0 0" keyTimes="0; 0.333333; 0.5; 0.666667; 0.944444; 1" keySplines="0 0 1 1; 0.167 0.167 0.734 0.851; 0.172 1 0.704 1; 0.578 0.083 0.85 0.823; 0 0 1 1" fill="freeze" /><path fill="#ecd293" d="M-8.876,14.554C-8.876,14.554,-8.16,4.772,-8.16,4.772C-8.16,4.772,-15.77,-1.394,-15.77,-1.394C-16.636,-2.096,-16.329,-3.491,-15.25,-3.753C-15.25,-3.753,-5.775,-6.058,-5.775,-6.058C-5.775,-6.058,-2.32,-15.221,-2.32,-15.221C-1.926,-16.265,-0.512,-16.397,0.074,-15.446C0.074,-15.446,5.214,-7.09,5.214,-7.09C5.214,-7.09,14.958,-6.585,14.958,-6.585C16.067,-6.528,16.635,-5.216,15.918,-4.365C15.918,-4.365,9.619,3.105,9.619,3.105C9.619,3.105,12.186,12.579,12.186,12.579C12.478,13.658,11.416,14.601,10.387,14.175C10.387,14.175,1.354,10.436,1.354,10.436C1.354,10.436,-6.803,15.787,-6.803,15.787C-7.733,16.397,-8.956,15.667,-8.876,14.554Z" /></g></g></g><g><g transform="translate(9.906,495.765)"><g id="i3" transform="scale(0,0)"><animateTransform repeatCount="indefinite" type="scale" attributeName="transform" dur="1.8s" begin="0s" calcMode="spline" values="0 0; 0 0; 0.917 0.917; 0.97 0.97; 0 0; 0 0" keyTimes="0; 0.333333; 0.5; 0.666667; 0.944444; 1" keySplines="0 0 1 1; 0.167 0.167 0.734 0.851; 0.172 1 0.704 1; 0.578 0.083 0.85 0.823; 0 0 1 1" fill="freeze" /><path fill="#ecd293" d="M-5.152,8.447C-5.152,8.447,-4.736,2.77,-4.736,2.77C-4.736,2.77,-9.152,-0.809,-9.152,-0.809C-9.656,-1.217,-9.477,-2.026,-8.85,-2.178C-8.85,-2.178,-3.352,-3.517,-3.352,-3.517C-3.352,-3.517,-1.346,-8.834,-1.346,-8.834C-1.117,-9.44,-0.295,-9.517,0.044,-8.965C0.044,-8.965,3.027,-4.114,3.027,-4.114C3.027,-4.114,8.682,-3.822,8.682,-3.822C9.327,-3.789,9.656,-3.027,9.24,-2.533C9.24,-2.533,5.583,1.802,5.583,1.802C5.583,1.802,7.074,7.3,7.074,7.3C7.244,7.927,6.626,8.475,6.029,8.228C6.029,8.228,0.786,6.057,0.786,6.057C0.786,6.057,-3.949,9.163,-3.949,9.163C-4.488,9.517,-5.198,9.093,-5.152,8.447Z" /></g></g></g><g><g transform="translate(129.955,790.043)"><g id="i4" transform="scale(0,0)"><animateTransform repeatCount="indefinite" type="scale" attributeName="transform" dur="1.8s" begin="0s" calcMode="spline" values="0 0; 0 0; 0.917 0.917; 0.97 0.97; 0 0; 0 0" keyTimes="0; 0.277778; 0.444444; 0.611111; 0.888889; 1" keySplines="0 0 1 1; 0.167 0.167 0.734 0.851; 0.172 1 0.704 1; 0.578 0.083 0.85 0.823; 0 0 1 1" fill="freeze" /><path fill="#ecd293" d="M-10.439,17.117C-10.439,17.117,-9.597,5.613,-9.597,5.613C-9.597,5.613,-18.546,-1.639,-18.546,-1.639C-19.565,-2.466,-19.204,-4.104,-17.935,-4.413C-17.935,-4.413,-6.792,-7.125,-6.792,-7.125C-6.792,-7.125,-2.727,-17.901,-2.727,-17.901C-2.265,-19.128,-0.602,-19.284,0.087,-18.165C0.087,-18.165,6.132,-8.337,6.132,-8.337C6.132,-8.337,17.592,-7.745,17.592,-7.745C18.896,-7.677,19.564,-6.134,18.72,-5.133C18.72,-5.133,11.312,3.652,11.312,3.652C11.312,3.652,14.331,14.794,14.331,14.794C14.676,16.062,13.424,17.172,12.214,16.671C12.214,16.671,1.592,12.274,1.592,12.274C1.592,12.274,-8.002,18.567,-8.002,18.567C-9.096,19.284,-10.535,18.427,-10.439,17.117Z" /></g></g></g><g><g transform="translate(366.265,572.585)"><g id="i5" transform="scale(0,0)"><animateTransform repeatCount="indefinite" type="scale" attributeName="transform" dur="1.8s" begin="0s" calcMode="spline" values="0 0; 0 0; 0.917 0.917; 0.97 0.97; 0 0; 0 0" keyTimes="0; 0.333333; 0.5; 0.666667; 0.944444; 1" keySplines="0 0 1 1; 0.167 0.167 0.734 0.851; 0.172 1 0.704 1; 0.578 0.083 0.85 0.823; 0 0 1 1" fill="freeze" /><path fill="#ecd293" d="M-8.2,13.447C-8.2,13.447,-7.539,4.41,-7.539,4.41C-7.539,4.41,-14.568,-1.288,-14.568,-1.288C-15.369,-1.936,-15.084,-3.224,-14.089,-3.467C-14.089,-3.467,-5.335,-5.597,-5.335,-5.597C-5.335,-5.597,-2.142,-14.062,-2.142,-14.062C-1.778,-15.027,-0.472,-15.149,0.07,-14.27C0.07,-14.27,4.817,-6.549,4.817,-6.549C4.817,-6.549,13.82,-6.083,13.82,-6.083C14.846,-6.031,15.369,-4.819,14.707,-4.033C14.707,-4.033,8.888,2.869,8.888,2.869C8.888,2.869,11.26,11.622,11.26,11.622C11.53,12.619,10.547,13.491,9.597,13.097C9.597,13.097,1.252,9.642,1.252,9.642C1.252,9.642,-6.285,14.586,-6.285,14.586C-7.144,15.149,-8.275,14.476,-8.2,13.447Z" /></g></g></g><g><g transform="translate(97.833,339.889)"><g id="i6" transform="scale(0,0)"><animateTransform repeatCount="indefinite" type="scale" attributeName="transform" dur="1.8s" begin="0s" calcMode="spline" values="0 0; 0 0; 0.917 0.917; 0.97 0.97; 0 0; 0 0" keyTimes="0; 0.240741; 0.407407; 0.574074; 0.851852; 1" keySplines="0 0 1 1; 0.167 0.167 0.734 0.851; 0.172 1 0.704 1; 0.578 0.083 0.85 0.823; 0 0 1 1" fill="freeze" /><path fill="#ecd293" d="M-8.2,13.447C-8.2,13.447,-7.539,4.41,-7.539,4.41C-7.539,4.41,-14.568,-1.287,-14.568,-1.287C-15.369,-1.936,-15.086,-3.224,-14.088,-3.467C-14.088,-3.467,-5.335,-5.597,-5.335,-5.597C-5.335,-5.597,-2.142,-14.062,-2.142,-14.062C-1.779,-15.026,-0.472,-15.149,0.07,-14.27C0.07,-14.27,4.817,-6.549,4.817,-6.549C4.817,-6.549,13.82,-6.084,13.82,-6.084C14.846,-6.031,15.369,-4.818,14.707,-4.032C14.707,-4.032,8.888,2.869,8.888,2.869C8.888,2.869,11.26,11.623,11.26,11.623C11.529,12.619,10.547,13.491,9.597,13.098C9.597,13.098,1.252,9.643,1.252,9.643C1.252,9.643,-6.285,14.587,-6.285,14.587C-7.143,15.15,-8.275,14.476,-8.2,13.447Z" /></g></g></g><g><g transform="translate(29.47,76.118)"><g id="i7" transform="scale(0,0)"><animateTransform repeatCount="indefinite" type="scale" attributeName="transform" dur="1.8s" begin="0s" calcMode="spline" values="0 0; 0 0; 0.917 0.917; 0.97 0.97; 0 0; 0 0" keyTimes="0; 0.240741; 0.388889; 0.555555; 0.833333; 1" keySplines="0 0 1 1; 0.167 0.167 0.734 0.867; 0.172 1 0.704 1; 0.578 0.083 0.85 0.823; 0 0 1 1" fill="freeze" /><path fill="#ecd293" d="M-8.2,13.447C-8.2,13.447,-7.539,4.41,-7.539,4.41C-7.539,4.41,-14.568,-1.287,-14.568,-1.287C-15.369,-1.936,-15.086,-3.224,-14.088,-3.467C-14.088,-3.467,-5.335,-5.597,-5.335,-5.597C-5.335,-5.597,-2.142,-14.062,-2.142,-14.062C-1.779,-15.026,-0.472,-15.149,0.068,-14.269C0.068,-14.269,4.817,-6.549,4.817,-6.549C4.817,-6.549,13.82,-6.084,13.82,-6.084C14.846,-6.031,15.369,-4.818,14.707,-4.033C14.707,-4.033,8.888,2.869,8.888,2.869C8.888,2.869,11.259,11.622,11.259,11.622C11.529,12.619,10.547,13.49,9.596,13.097C9.596,13.097,1.252,9.642,1.252,9.642C1.252,9.642,-6.285,14.586,-6.285,14.586C-7.144,15.149,-8.275,14.476,-8.2,13.447Z" /></g></g></g><g><g transform="translate(661.364,216.97)"><g id="i8" transform="scale(0,0)"><animateTransform repeatCount="indefinite" type="scale" attributeName="transform" dur="1.8s" begin="0s" calcMode="spline" values="0 0; 0 0; 0.917 0.917; 0.97 0.97; 0 0; 0 0" keyTimes="0; 0.277778; 0.481482; 0.648149; 0.925926; 1" keySplines="0 0 1 1; 0.167 0.167 0.734 0.818; 0.172 1 0.704 1; 0.578 0.083 0.85 0.823; 0 0 1 1" fill="freeze" /><path fill="#ecd293" d="M-8.201,13.446C-8.201,13.446,-7.539,4.409,-7.539,4.409C-7.539,4.409,-14.569,-1.288,-14.569,-1.288C-15.37,-1.937,-15.084,-3.225,-14.087,-3.467C-14.087,-3.467,-5.336,-5.598,-5.336,-5.598C-5.336,-5.598,-2.143,-14.063,-2.143,-14.063C-1.78,-15.027,-0.472,-15.149,0.07,-14.271C0.07,-14.271,4.817,-6.55,4.817,-6.55C4.817,-6.55,13.82,-6.084,13.82,-6.084C14.846,-6.031,15.369,-4.819,14.706,-4.033C14.706,-4.033,8.888,2.869,8.888,2.869C8.888,2.869,11.259,11.622,11.259,11.622C11.529,12.619,10.547,13.49,9.596,13.097C9.596,13.097,1.252,9.642,1.252,9.642C1.252,9.642,-6.285,14.586,-6.285,14.586C-7.143,15.149,-8.276,14.476,-8.201,13.446Z" /></g></g></g><g><g transform="translate(809.128,372.22)"><g id="i9" transform="scale(0,0)"><animateTransform repeatCount="indefinite" type="scale" attributeName="transform" dur="1.8s" begin="0s" calcMode="spline" values="0 0; 0 0; 0.917 0.917; 0.97 0.97; 0 0; 0 0" keyTimes="0; 0.240741; 0.444445; 0.611111; 0.888889; 1" keySplines="0 0 1 1; 0.167 0.167 0.734 0.818; 0.172 1 0.704 1; 0.578 0.083 0.85 0.823; 0 0 1 1" fill="freeze" /><path fill="#ecd293" d="M-11.079,-6.657C-11.079,-6.657,-3.665,-6.182,-3.665,-6.182C-3.665,-6.182,0.904,-12.056,0.904,-12.056C1.425,-12.725,2.486,-12.5,2.698,-11.676C2.698,-11.676,4.565,-4.44,4.565,-4.44C4.565,-4.44,11.547,-1.863,11.547,-1.863C12.342,-1.57,12.46,-0.489,11.747,-0.034C11.747,-0.034,5.487,3.965,5.487,3.965C5.487,3.965,5.231,11.43,5.231,11.43C5.202,12.28,4.216,12.724,3.563,12.182C3.563,12.182,-2.174,7.417,-2.174,7.417C-2.174,7.417,-9.313,9.454,-9.313,9.454C-10.127,9.686,-10.855,8.88,-10.545,8.089C-10.545,8.089,-7.831,1.145,-7.831,1.145C-7.831,1.145,-11.987,-5.061,-11.987,-5.061C-12.46,-5.768,-11.924,-6.711,-11.079,-6.657Z" /></g></g></g><g><g transform="translate(642.888,555.338)"><g id="i10" transform="scale(0,0)"><animateTransform repeatCount="indefinite" type="scale" attributeName="transform" dur="1.8s" begin="0s" calcMode="spline" values="0 0; 0 0; 0.917 0.917; 0.97 0.97; 0 0; 0 0" keyTimes="0; 0.333333; 0.5; 0.666667; 0.944444; 1" keySplines="0 0 1 1; 0.167 0.167 0.734 0.851; 0.172 1 0.704 1; 0.578 0.083 0.85 0.823; 0 0 1 1" fill="freeze" /><path fill="#ecd293" d="M-5.275,-3.169C-5.275,-3.169,-1.745,-2.943,-1.745,-2.943C-1.745,-2.943,0.43,-5.739,0.43,-5.739C0.679,-6.058,1.183,-5.951,1.284,-5.558C1.284,-5.558,2.174,-2.114,2.174,-2.114C2.174,-2.114,5.498,-0.887,5.498,-0.887C5.876,-0.748,5.932,-0.232,5.592,-0.015C5.592,-0.015,2.612,1.889,2.612,1.889C2.612,1.889,2.491,5.442,2.491,5.442C2.477,5.847,2.007,6.058,1.696,5.8C1.696,5.8,-1.036,3.532,-1.036,3.532C-1.036,3.532,-4.434,4.501,-4.434,4.501C-4.822,4.612,-5.168,4.228,-5.021,3.851C-5.021,3.851,-3.728,0.545,-3.728,0.545C-3.728,0.545,-5.707,-2.409,-5.707,-2.409C-5.932,-2.746,-5.677,-3.195,-5.275,-3.169Z" /></g></g></g><g><g transform="translate(640.267,134.069)"><g id="i11" transform="scale(0,0)"><animateTransform repeatCount="indefinite" type="scale" attributeName="transform" dur="1.8s" begin="0s" calcMode="spline" values="0 0; 0 0; 0.917 0.917; 0.97 0.97; 0 0; 0 0" keyTimes="0; 0.296296; 0.462963; 0.62963; 0.907407; 1" keySplines="0 0 1 1; 0.167 0.167 0.734 0.851; 0.172 1 0.704 1; 0.578 0.083 0.85 0.823; 0 0 1 1" fill="freeze" /><path fill="#ecd293" d="M-7.639,-10.532C-7.639,-10.532,-0.964,-7.739,-0.964,-7.739C-0.964,-7.739,5.09,-11.678,5.09,-11.678C5.778,-12.126,6.683,-11.583,6.62,-10.759C6.62,-10.759,6.063,-3.52,6.063,-3.52C6.063,-3.52,11.679,1.064,11.679,1.064C12.317,1.587,12.087,2.617,11.288,2.809C11.288,2.809,4.269,4.49,4.269,4.49C4.269,4.49,1.686,11.262,1.686,11.262C1.392,12.034,0.345,12.127,-0.086,11.421C-0.086,11.421,-3.867,5.222,-3.867,5.222C-3.867,5.222,-11.079,4.822,-11.079,4.822C-11.901,4.776,-12.317,3.803,-11.783,3.176C-11.783,3.176,-7.1,-2.335,-7.1,-2.335C-7.1,-2.335,-8.976,-9.355,-8.976,-9.355C-9.189,-10.155,-8.4,-10.85,-7.639,-10.532Z" /></g></g></g><g><g transform="translate(513.802,78.334)"><g id="i12" transform="scale(0,0)"><animateTransform repeatCount="indefinite" type="scale" attributeName="transform" dur="1.8s" begin="0s" calcMode="spline" values="0 0; 0 0; 0.917 0.917; 0.97 0.97; 0 0; 0 0" keyTimes="0; 0.240741; 0.407407; 0.574074; 0.851852; 1" keySplines="0 0 1 1; 0.167 0.167 0.734 0.851; 0.172 1 0.704 1; 0.578 0.083 0.85 0.823; 0 0 1 1" fill="freeze" /><path fill="#ecd293" d="M-7.64,-10.532C-7.64,-10.532,-0.965,-7.739,-0.965,-7.739C-0.965,-7.739,5.088,-11.678,5.088,-11.678C5.777,-12.127,6.682,-11.583,6.619,-10.759C6.619,-10.759,6.062,-3.522,6.062,-3.522C6.062,-3.522,11.677,1.064,11.677,1.064C12.318,1.586,12.086,2.617,11.286,2.809C11.286,2.809,4.267,4.49,4.267,4.49C4.267,4.49,1.685,11.261,1.685,11.261C1.39,12.033,0.344,12.127,-0.087,11.421C-0.087,11.421,-3.868,5.222,-3.868,5.222C-3.868,5.222,-11.08,4.822,-11.08,4.822C-11.902,4.776,-12.318,3.803,-11.785,3.176C-11.785,3.176,-7.103,-2.335,-7.103,-2.335C-7.103,-2.335,-8.977,-9.355,-8.977,-9.355C-9.19,-10.155,-8.4,-10.85,-7.64,-10.532Z" /></g></g></g><g><g transform="translate(407.119,12.377)"><g id="i13" transform="scale(0,0)"><animateTransform repeatCount="indefinite" type="scale" attributeName="transform" dur="1.8s" begin="0s" calcMode="spline" values="0 0; 0 0; 0.917 0.917; 0.97 0.97; 0 0; 0 0" keyTimes="0; 0.296296; 0.462963; 0.62963; 0.907407; 1" keySplines="0 0 1 1; 0.167 0.167 0.734 0.851; 0.172 1 0.704 1; 0.578 0.083 0.85 0.823; 0 0 1 1" fill="freeze" /><path fill="#ecd293" d="M-7.638,-10.532C-7.638,-10.532,-0.964,-7.74,-0.964,-7.74C-0.964,-7.74,5.089,-11.678,5.089,-11.678C5.779,-12.127,6.683,-11.584,6.62,-10.759C6.62,-10.759,6.062,-3.521,6.062,-3.521C6.062,-3.521,11.678,1.063,11.678,1.063C12.317,1.586,12.086,2.617,11.287,2.808C11.287,2.808,4.268,4.489,4.268,4.489C4.268,4.489,1.685,11.261,1.685,11.261C1.391,12.032,0.344,12.127,-0.087,11.421C-0.087,11.421,-3.867,5.222,-3.867,5.222C-3.867,5.222,-11.079,4.822,-11.079,4.822C-11.901,4.777,-12.318,3.804,-11.784,3.176C-11.784,3.176,-7.102,-2.336,-7.102,-2.336C-7.102,-2.336,-8.975,-9.355,-8.975,-9.355C-9.189,-10.154,-8.398,-10.85,-7.638,-10.532Z" /></g></g></g><g><g transform="translate(482.585,711.659)"><g id="i14" transform="scale(0,0)"><animateTransform repeatCount="indefinite" type="scale" attributeName="transform" dur="1.8s" begin="0s" calcMode="spline" values="0 0; 0 0; 0.917 0.917; 0.97 0.97; 0 0; 0 0" keyTimes="0; 0.240741; 0.407407; 0.574074; 0.851852; 1" keySplines="0 0 1 1; 0.167 0.167 0.734 0.851; 0.172 1 0.704 1; 0.578 0.083 0.85 0.823; 0 0 1 1" fill="freeze" /><path fill="#ecd293" d="M-7.875,-1.61C-7.875,-1.61,-3.051,-3.08,-3.051,-3.08C-3.051,-3.08,-1.533,-7.914,-1.533,-7.914C-1.361,-8.465,-0.634,-8.576,-0.304,-8.101C-0.304,-8.101,2.592,-3.936,2.592,-3.936C2.592,-3.936,7.639,-3.964,7.639,-3.964C8.213,-3.967,8.543,-3.306,8.199,-2.845C8.199,-2.845,5.165,1.199,5.165,1.199C5.165,1.199,6.766,6.016,6.766,6.016C6.948,6.566,6.426,7.084,5.883,6.894C5.883,6.894,1.11,5.229,1.11,5.229C1.11,5.229,-2.945,8.234,-2.945,8.234C-3.407,8.576,-4.06,8.235,-4.051,7.658C-4.051,7.658,-3.966,2.585,-3.966,2.585C-3.966,2.585,-8.074,-0.376,-8.074,-0.376C-8.542,-0.713,-8.424,-1.443,-7.875,-1.61Z" /></g></g></g></g></g></g></g></svg>