<svg fill="none" height="100%" width="100%" viewBox="0 0 512 512" xmlns:xlink="http://www.w3.org/1999/xlink" xmlns="http://www.w3.org/2000/svg"><defs><clipPath id="i0"><rect height="512" width="512" y="0" x="0" /></clipPath><g id="i1"><g transform="matrix(1,0,0,1,0.14,-0.11)" id="i2"><g id="i3" transform="matrix(1,0,0,1,-9.78,4.33)"><g id="i4" transform="matrix(1,0,0,1,0,0)"><path stroke-linejoin="round" stroke-linecap="round" stroke-width="12.96" stroke="#0857a0" fill="#0857a0" d="M281.03,85.8C281.03,89.52,279.54,93.1,276.91,95.73C274.28,98.36,270.71,99.84,266.99,99.84C259.24,99.84,252.95,93.55,252.95,85.8C252.95,78.05,259.24,71.76,266.99,71.76C270.71,71.76,274.28,73.24,276.91,75.87C279.54,78.5,281.03,82.08,281.03,85.8C281.03,85.8,281.03,85.8,281.03,85.8Z" /></g><g id="i5" transform="matrix(1,0,0,1,0,0)"><path stroke-linejoin="round" stroke-linecap="round" stroke-width="8.03" stroke="#0857a0" fill="#0857a0" d="M275.68,126.19C275.68,130.99,271.79,134.88,266.99,134.88C262.19,134.88,258.29,130.99,258.29,126.19C258.29,121.39,262.19,117.5,266.99,117.5C271.79,117.5,275.68,121.39,275.68,126.19C275.68,126.19,275.68,126.19,275.68,126.19Z" /></g><g id="i6" transform="matrix(1,0,0,1,0,0)"><path stroke-linejoin="round" stroke-linecap="round" stroke-width="8.03" stroke="#0857a0" fill="#0857a0" d="M275.68,156.33C275.68,161.13,271.79,165.03,266.99,165.03C262.19,165.03,258.29,161.13,258.29,156.33C258.29,151.53,262.19,147.64,266.99,147.64C271.79,147.64,275.68,151.53,275.68,156.33C275.68,156.33,275.68,156.33,275.68,156.33Z" /></g><g id="i7" transform="matrix(1,0,0,1,0,0)"><path stroke-linejoin="round" stroke-linecap="round" stroke-width="8.03" stroke="#0857a0" fill="#0857a0" d="M275.68,186.22C275.68,191.02,271.79,194.92,266.99,194.92C262.19,194.92,258.29,191.02,258.29,186.22C258.29,181.42,262.19,177.53,266.99,177.53C271.79,177.53,275.68,181.42,275.68,186.22C275.68,186.22,275.68,186.22,275.68,186.22Z" /></g><g id="i8" transform="matrix(1,0,0,1,0,0)"><path stroke-linejoin="round" stroke-linecap="round" stroke-width="8.03" stroke="#0857a0" fill="#0857a0" d="M275.68,216.36C275.68,221.16,271.79,225.06,266.99,225.06C262.19,225.06,258.29,221.16,258.29,216.36C258.29,211.56,262.19,207.67,266.99,207.67C271.79,207.67,275.68,211.56,275.68,216.36C275.68,216.36,275.68,216.36,275.68,216.36Z" /></g><g id="i9" transform="matrix(1,0,0,1,0,0)"><path stroke-linejoin="round" stroke-linecap="round" stroke-width="8.03" stroke="#0857a0" fill="#0857a0" d="M275.68,245.77C275.68,250.57,271.79,254.46,266.99,254.46C262.19,254.46,258.29,250.57,258.29,245.77C258.29,240.97,262.19,237.07,266.99,237.07C271.79,237.07,275.68,240.97,275.68,245.77C275.68,245.77,275.68,245.77,275.68,245.77Z" /></g></g></g><g id="i10"><g transform="translate(256.137,255.886)"><animateTransform repeatCount="indefinite" type="translate" attributeName="transform" dur="1.5s" begin="0s" calcMode="spline" values="256.137 255.886; 256.137 255.886; 228.005 255.886; 256.137 255.886; 256.137 255.886" keyTimes="0; 0.333333; 0.533333; 0.733333; 1" keySplines="0 0 1 1; 0 0 1 1; 0 0 1 1; 0 0 1 1" fill="freeze" /><g transform="translate(-255.997,-255.996)"><g id="i11" transform="matrix(1,0,0,1,0,0)"><path stroke-linejoin="round" stroke-linecap="round" stroke-width="8.03" stroke="#0857a0" fill="#0857a0" d="M292.69,280.24C292.69,285.04,288.8,288.94,284,288.94C279.2,288.94,275.3,285.04,275.3,280.24C275.3,275.44,279.2,271.55,284,271.55C288.8,271.55,292.69,275.44,292.69,280.24C292.69,280.24,292.69,280.24,292.69,280.24Z" /></g></g></g></g><g id="i12"><g transform="translate(256.137,255.886)"><animateTransform repeatCount="indefinite" type="translate" attributeName="transform" dur="1.5s" begin="0s" calcMode="spline" values="256.137 255.886; 256.137 255.886; 279.146 255.886; 256.137 255.886; 256.137 255.886" keyTimes="0; 0.333333; 0.533333; 0.733333; 1" keySplines="0 0 1 1; 0 0 1 1; 0 0 1 1; 0 0 1 1" fill="freeze" /><g transform="translate(-255.997,-255.996)"><g id="i13" transform="matrix(1,0,0,1,0,0)"><path stroke-linejoin="round" stroke-linecap="round" stroke-width="8.03" stroke="#0857a0" fill="#0857a0" d="M241.55,280.24C241.55,285.04,237.66,288.94,232.86,288.94C228.06,288.94,224.16,285.04,224.16,280.24C224.16,275.44,228.06,271.55,232.86,271.55C237.66,271.55,241.55,275.44,241.55,280.24C241.55,280.24,241.55,280.24,241.55,280.24Z" /></g></g></g></g><g id="i14"><g transform="translate(256.137,255.886)"><animateTransform repeatCount="indefinite" type="translate" attributeName="transform" dur="1.5s" begin="0s" calcMode="spline" values="256.137 255.886; 256.137 255.886; 222.833 255.886; 256.137 255.886" keyTimes="0; 0.6; 0.8; 1" keySplines="0 0 1 1; 0 0 1 1; 0 0 1 1" fill="freeze" /><g transform="translate(-255.997,-255.996)"><g id="i15" transform="matrix(1,0,0,1,0,0)"><path stroke-linejoin="round" stroke-linecap="round" stroke-width="8.03" stroke="#0857a0" fill="#0857a0" d="M297.86,130.52C297.86,135.32,293.97,139.22,289.17,139.22C284.37,139.22,280.48,135.32,280.48,130.52C280.48,125.72,284.37,121.83,289.17,121.83C293.97,121.83,297.86,125.72,297.86,130.52C297.86,130.52,297.86,130.52,297.86,130.52Z" /></g></g></g></g><g id="i16"><g transform="translate(256.137,255.886)"><animateTransform repeatCount="indefinite" type="translate" attributeName="transform" dur="1.5s" begin="0s" calcMode="spline" values="256.137 255.886; 256.137 255.886; 286.755 255.886; 256.137 255.886" keyTimes="0; 0.6; 0.8; 1" keySplines="0 0 1 1; 0 0 1 1; 0 0 1 1" fill="freeze" /><g transform="translate(-255.997,-255.996)"><g id="i17" transform="matrix(1,0,0,1,0,0)"><path stroke-linejoin="round" stroke-linecap="round" stroke-width="8.03" stroke="#0857a0" fill="#0857a0" d="M233.94,130.52C233.94,135.32,230.05,139.22,225.25,139.22C220.45,139.22,216.56,135.32,216.56,130.52C216.56,125.72,220.45,121.83,225.25,121.83C230.05,121.83,233.94,125.72,233.94,130.52C233.94,130.52,233.94,130.52,233.94,130.52Z" /></g></g></g></g><g id="i18"><g transform="translate(256.137,255.886)"><animateTransform repeatCount="indefinite" type="translate" attributeName="transform" dur="1.5s" begin="0s" calcMode="spline" values="256.137 255.886; 256.137 255.886; 228.005 255.886; 256.137 255.886; 256.137 255.886" keyTimes="0; 0.266667; 0.466667; 0.666667; 1" keySplines="0 0 1 1; 0 0 1 1; 0 0 1 1; 0 0 1 1" fill="freeze" /><g transform="translate(-255.997,-255.996)"><g id="i19" transform="matrix(1,0,0,1,0,0)"><path stroke-linejoin="round" stroke-linecap="round" stroke-width="8.03" stroke="#0857a0" fill="#0857a0" d="M292.69,309.94C292.69,314.74,288.8,318.64,284,318.64C279.2,318.64,275.3,314.74,275.3,309.94C275.3,305.14,279.2,301.25,284,301.25C288.8,301.25,292.69,305.14,292.69,309.94C292.69,309.94,292.69,309.94,292.69,309.94Z" /></g></g></g></g><g id="i20"><g transform="translate(256.137,255.886)"><animateTransform repeatCount="indefinite" type="translate" attributeName="transform" dur="1.5s" begin="0s" calcMode="spline" values="256.137 255.886; 256.137 255.886; 279.146 255.886; 256.137 255.886; 256.137 255.886" keyTimes="0; 0.266667; 0.466667; 0.666667; 1" keySplines="0 0 1 1; 0 0 1 1; 0 0 1 1; 0 0 1 1" fill="freeze" /><g transform="translate(-255.997,-255.996)"><g id="i21" transform="matrix(1,0,0,1,0,0)"><path stroke-linejoin="round" stroke-linecap="round" stroke-width="8.03" stroke="#0857a0" fill="#0857a0" d="M241.55,309.94C241.55,314.74,237.66,318.64,232.86,318.64C228.06,318.64,224.16,314.74,224.16,309.94C224.16,305.14,228.06,301.25,232.86,301.25C237.66,301.25,241.55,305.14,241.55,309.94C241.55,309.94,241.55,309.94,241.55,309.94Z" /></g></g></g></g><g id="i22"><g transform="translate(256.137,255.886)"><animateTransform repeatCount="indefinite" type="translate" attributeName="transform" dur="1.5s" begin="0s" calcMode="spline" values="256.137 255.886; 256.137 255.886; 228.005 255.886; 256.137 255.886; 256.137 255.886" keyTimes="0; 0.2; 0.4; 0.6; 1" keySplines="0 0 1 1; 0 0 1 1; 0 0 1 1; 0 0 1 1" fill="freeze" /><g transform="translate(-255.997,-255.996)"><g id="i23" transform="matrix(1,0,0,1,0,0)"><path stroke-linejoin="round" stroke-linecap="round" stroke-width="8.03" stroke="#0857a0" fill="#0857a0" d="M292.69,339.65C292.69,344.45,288.8,348.34,284,348.34C279.2,348.34,275.3,344.45,275.3,339.65C275.3,334.85,279.2,330.95,284,330.95C288.8,330.95,292.69,334.85,292.69,339.65C292.69,339.65,292.69,339.65,292.69,339.65Z" /></g></g></g></g><g id="i24"><g transform="translate(256.137,255.886)"><animateTransform repeatCount="indefinite" type="translate" attributeName="transform" dur="1.5s" begin="0s" calcMode="spline" values="256.137 255.886; 256.137 255.886; 279.146 255.886; 256.137 255.886; 256.137 255.886" keyTimes="0; 0.2; 0.4; 0.6; 1" keySplines="0 0 1 1; 0 0 1 1; 0 0 1 1; 0 0 1 1" fill="freeze" /><g transform="translate(-255.997,-255.996)"><g id="i25" transform="matrix(1,0,0,1,0,0)"><path stroke-linejoin="round" stroke-linecap="round" stroke-width="8.03" stroke="#0857a0" fill="#0857a0" d="M241.55,339.65C241.55,344.45,237.66,348.34,232.86,348.34C228.06,348.34,224.16,344.45,224.16,339.65C224.16,334.85,228.06,330.95,232.86,330.95C237.66,330.95,241.55,334.85,241.55,339.65C241.55,339.65,241.55,339.65,241.55,339.65Z" /></g></g></g></g><g id="i26"><g transform="translate(256.137,255.886)"><animateTransform repeatCount="indefinite" type="translate" attributeName="transform" dur="1.5s" begin="0s" calcMode="spline" values="256.137 255.886; 256.137 255.886; 228.005 255.886; 256.137 255.886; 256.137 255.886" keyTimes="0; 0.133333; 0.311111; 0.533333; 1" keySplines="0 0 1 1; 0 0 1 1; 0 0 1 1; 0 0 1 1" fill="freeze" /><g transform="translate(-255.997,-255.996)"><g id="i27" transform="matrix(1,0,0,1,0,0)"><path stroke-linejoin="round" stroke-linecap="round" stroke-width="8.03" stroke="#0857a0" fill="#0857a0" d="M292.69,369.35C292.69,374.15,288.8,378.04,284,378.04C279.2,378.04,275.3,374.15,275.3,369.35C275.3,364.55,279.2,360.66,284,360.66C288.8,360.66,292.69,364.55,292.69,369.35C292.69,369.35,292.69,369.35,292.69,369.35Z" /></g></g></g></g><g id="i28"><g transform="translate(256.137,255.886)"><animateTransform repeatCount="indefinite" type="translate" attributeName="transform" dur="1.5s" begin="0s" calcMode="spline" values="256.137 255.886; 256.137 255.886; 279.146 255.886; 256.137 255.886; 256.137 255.886" keyTimes="0; 0.133333; 0.311111; 0.533333; 1" keySplines="0 0 1 1; 0 0 1 1; 0 0 1 1; 0 0 1 1" fill="freeze" /><g transform="translate(-255.997,-255.996)"><g id="i29" transform="matrix(1,0,0,1,0,0)"><path stroke-linejoin="round" stroke-linecap="round" stroke-width="8.03" stroke="#0857a0" fill="#0857a0" d="M241.55,369.35C241.55,374.15,237.66,378.04,232.86,378.04C228.06,378.04,224.16,374.15,224.16,369.35C224.16,364.55,228.06,360.66,232.86,360.66C237.66,360.66,241.55,364.55,241.55,369.35C241.55,369.35,241.55,369.35,241.55,369.35Z" /></g></g></g></g><g id="i30"><g transform="translate(256.137,255.886)"><animateTransform repeatCount="indefinite" type="translate" attributeName="transform" dur="1.5s" begin="0s" calcMode="spline" values="256.137 255.886; 256.137 255.886; 228.005 255.886; 256.137 255.886; 256.137 255.886" keyTimes="0; 0.066667; 0.244444; 0.422222; 1" keySplines="0 0 1 1; 0 0 1 1; 0 0 1 1; 0 0 1 1" fill="freeze" /><g transform="translate(-255.997,-255.996)"><g id="i31" transform="matrix(1,0,0,1,0,0)"><path stroke-linejoin="round" stroke-linecap="round" stroke-width="8.03" stroke="#0857a0" fill="#0857a0" d="M292.69,399.98C292.69,404.78,288.8,408.68,284,408.68C279.2,408.68,275.3,404.78,275.3,399.98C275.3,395.18,279.2,391.29,284,391.29C288.8,391.29,292.69,395.18,292.69,399.98C292.69,399.98,292.69,399.98,292.69,399.98Z" /></g></g></g></g><g id="i32"><g transform="translate(256.137,255.886)"><animateTransform repeatCount="indefinite" type="translate" attributeName="transform" dur="1.5s" begin="0s" calcMode="spline" values="256.137 255.886; 256.137 255.886; 279.146 255.886; 256.137 255.886; 256.137 255.886" keyTimes="0; 0.066667; 0.244444; 0.422222; 1" keySplines="0 0 1 1; 0 0 1 1; 0 0 1 1; 0 0 1 1" fill="freeze" /><g transform="translate(-255.997,-255.996)"><g id="i33" transform="matrix(1,0,0,1,0,0)"><path stroke-linejoin="round" stroke-linecap="round" stroke-width="8.03" stroke="#0857a0" fill="#0857a0" d="M241.55,399.98C241.55,404.78,237.66,408.68,232.86,408.68C228.06,408.68,224.16,404.78,224.16,399.98C224.16,395.18,228.06,391.29,232.86,391.29C237.66,391.29,241.55,395.18,241.55,399.98C241.55,399.98,241.55,399.98,241.55,399.98Z" /></g></g></g></g><g id="i34"><g transform="translate(256.137,255.886)"><animateTransform repeatCount="indefinite" type="translate" attributeName="transform" dur="1.5s" begin="0s" calcMode="spline" values="256.137 255.886; 228.003 256.222; 256.137 255.886; 256.137 255.886" keyTimes="0; 0.177778; 0.355555; 1" keySplines="0 0 1 1; 0 0 1 1; 0 0 1 1" fill="freeze" /><g transform="translate(-255.997,-255.996)"><g id="i35" transform="matrix(1,0,0,1,0,0)"><path stroke-linejoin="round" stroke-linecap="round" stroke-width="8.03" stroke="#0857a0" fill="#0857a0" d="M292.69,429.68C292.69,434.48,288.8,438.38,284,438.38C279.2,438.38,275.3,434.48,275.3,429.68C275.3,424.88,279.2,420.99,284,420.99C288.8,420.99,292.69,424.88,292.69,429.68C292.69,429.68,292.69,429.68,292.69,429.68Z" /></g></g></g></g><g id="i36"><g transform="translate(256.137,255.886)"><animateTransform repeatCount="indefinite" type="translate" attributeName="transform" dur="1.5s" begin="0s" calcMode="spline" values="256.137 255.886; 279.143 256.222; 256.137 255.886; 256.137 255.886" keyTimes="0; 0.177778; 0.355555; 1" keySplines="0 0 1 1; 0 0 1 1; 0 0 1 1" fill="freeze" /><g transform="translate(-255.997,-255.996)"><g id="i37" transform="matrix(1,0,0,1,0,0)"><path stroke-linejoin="round" stroke-linecap="round" stroke-width="8.03" stroke="#0857a0" fill="#0857a0" d="M241.55,429.68C241.55,434.48,237.66,438.38,232.86,438.38C228.06,438.38,224.16,434.48,224.16,429.68C224.16,424.88,228.06,420.99,232.86,420.99C237.66,420.99,241.55,424.88,241.55,429.68C241.55,429.68,241.55,429.68,241.55,429.68Z" /></g></g></g></g><g id="i38"><g transform="translate(256.137,255.886)"><animateTransform repeatCount="indefinite" type="translate" attributeName="transform" dur="1.5s" begin="0s" calcMode="spline" values="256.137 255.886; 256.137 255.886; 201.567 255.886; 256.137 255.886; 256.137 255.886" keyTimes="0; 0.533333; 0.733333; 0.933333; 1" keySplines="0 0 1 1; 0 0 1 1; 0 0 1 1; 0 0 1 1" fill="freeze" /><g transform="translate(-255.997,-255.996)"><g id="i39" transform="matrix(1,0,0,1,0,0)"><path stroke-linejoin="round" stroke-linecap="round" stroke-width="8.03" stroke="#0857a0" fill="#0857a0" d="M319.13,160.67C319.13,165.47,315.24,169.36,310.44,169.36C305.64,169.36,301.74,165.47,301.74,160.67C301.74,155.87,305.64,151.97,310.44,151.97C315.24,151.97,319.13,155.87,319.13,160.67C319.13,160.67,319.13,160.67,319.13,160.67Z" /></g></g></g></g><g id="i40"><g transform="translate(256.137,255.886)"><animateTransform repeatCount="indefinite" type="translate" attributeName="transform" dur="1.5s" begin="0s" calcMode="spline" values="256.137 255.886; 256.137 255.886; 310.442 255.886; 256.137 255.886; 256.137 255.886" keyTimes="0; 0.533333; 0.733333; 0.933333; 1" keySplines="0 0 1 1; 0 0 1 1; 0 0 1 1; 0 0 1 1" fill="freeze" /><g transform="translate(-255.997,-255.996)"><g id="i41" transform="matrix(1,0,0,1,0,0)"><path stroke-linejoin="round" stroke-linecap="round" stroke-width="8.03" stroke="#0857a0" fill="#0857a0" d="M210.26,160.67C210.26,165.47,206.36,169.36,201.56,169.36C196.76,169.36,192.87,165.47,192.87,160.67C192.87,155.87,196.76,151.97,201.56,151.97C206.36,151.97,210.26,155.87,210.26,160.67C210.26,160.67,210.26,160.67,210.26,160.67Z" /></g></g></g></g><g id="i42"><g transform="translate(256.137,255.886)"><animateTransform repeatCount="indefinite" type="translate" attributeName="transform" dur="1.5s" begin="0s" calcMode="spline" values="256.137 255.886; 256.137 255.886; 201.567 255.886; 256.137 255.886; 256.137 255.886" keyTimes="0; 0.466667; 0.666667; 0.866667; 1" keySplines="0 0 1 1; 0 0 1 1; 0 0 1 1; 0 0 1 1" fill="freeze" /><g transform="translate(-255.997,-255.996)"><g id="i43" transform="matrix(1,0,0,1,0,0)"><path stroke-linejoin="round" stroke-linecap="round" stroke-width="8.03" stroke="#0857a0" fill="#0857a0" d="M319.13,190.55C319.13,195.35,315.24,199.25,310.44,199.25C305.64,199.25,301.74,195.35,301.74,190.55C301.74,185.75,305.64,181.86,310.44,181.86C315.24,181.86,319.13,185.75,319.13,190.55C319.13,190.55,319.13,190.55,319.13,190.55Z" /></g></g></g></g><g id="i44"><g transform="translate(256.137,255.886)"><animateTransform repeatCount="indefinite" type="translate" attributeName="transform" dur="1.5s" begin="0s" calcMode="spline" values="256.137 255.886; 256.137 255.886; 310.442 255.886; 256.137 255.886; 256.137 255.886" keyTimes="0; 0.466667; 0.666667; 0.866667; 1" keySplines="0 0 1 1; 0 0 1 1; 0 0 1 1; 0 0 1 1" fill="freeze" /><g transform="translate(-255.997,-255.996)"><g id="i45" transform="matrix(1,0,0,1,0,0)"><path stroke-linejoin="round" stroke-linecap="round" stroke-width="8.03" stroke="#0857a0" fill="#0857a0" d="M210.26,190.55C210.26,195.35,206.36,199.25,201.56,199.25C196.76,199.25,192.87,195.35,192.87,190.55C192.87,185.75,196.76,181.86,201.56,181.86C206.36,181.86,210.26,185.75,210.26,190.55C210.26,190.55,210.26,190.55,210.26,190.55Z" /></g></g></g></g><g id="i46"><g transform="translate(256.137,255.886)"><animateTransform repeatCount="indefinite" type="translate" attributeName="transform" dur="1.5s" begin="0s" calcMode="spline" values="256.137 255.886; 256.137 255.886; 201.567 255.886; 256.137 255.886; 256.137 255.886" keyTimes="0; 0.4; 0.6; 0.8; 1" keySplines="0 0 1 1; 0 0 1 1; 0 0 1 1; 0 0 1 1" fill="freeze" /><g transform="translate(-255.997,-255.996)"><g id="i47" transform="matrix(1,0,0,1,0,0)"><path stroke-linejoin="round" stroke-linecap="round" stroke-width="8.03" stroke="#0857a0" fill="#0857a0" d="M319.13,220.7C319.13,225.5,315.24,229.39,310.44,229.39C305.64,229.39,301.74,225.5,301.74,220.7C301.74,215.9,305.64,212,310.44,212C315.24,212,319.13,215.9,319.13,220.7C319.13,220.7,319.13,220.7,319.13,220.7Z" /></g></g></g></g><g id="i48"><g transform="translate(256.137,255.886)"><animateTransform repeatCount="indefinite" type="translate" attributeName="transform" dur="1.5s" begin="0s" calcMode="spline" values="256.137 255.886; 256.137 255.886; 310.442 255.886; 256.137 255.886; 256.137 255.886" keyTimes="0; 0.4; 0.6; 0.8; 1" keySplines="0 0 1 1; 0 0 1 1; 0 0 1 1; 0 0 1 1" fill="freeze" /><g transform="translate(-255.997,-255.996)"><g id="i49" transform="matrix(1,0,0,1,0,0)"><path stroke-linejoin="round" stroke-linecap="round" stroke-width="8.03" stroke="#0857a0" fill="#0857a0" d="M210.26,220.7C210.26,225.5,206.36,229.39,201.56,229.39C196.76,229.39,192.87,225.5,192.87,220.7C192.87,215.9,196.76,212,201.56,212C206.36,212,210.26,215.9,210.26,220.7C210.26,220.7,210.26,220.7,210.26,220.7Z" /></g></g></g></g></g></defs><g id="i50"><g transform="translate(250,250)"><animateTransform repeatCount="indefinite" type="translate" attributeName="transform" dur="1.5s" begin="0s" calcMode="spline" values="250 250; 250 240.015; 250 250; 250 250" keyTimes="0; 0.177778; 0.355555; 1" keySplines="0 0 1 1; 0 0 1 1; 0 0 1 1" fill="freeze" /><g transform="translate(-250,-250)"><g clip-path="url(#i0)"><g transform="matrix(1,0,0,1,0.14,-0.11)"><g transform="matrix(1,0,0,1,-9.78,4.33)"><g transform="matrix(1,0,0,1,0,0)"><path stroke-linejoin="round" stroke-linecap="round" stroke-width="12.96" stroke="#0857a0" fill="#0857a0" d="M281.03,85.8C281.03,89.52,279.54,93.1,276.91,95.73C274.28,98.36,270.71,99.84,266.99,99.84C259.24,99.84,252.95,93.55,252.95,85.8C252.95,78.05,259.24,71.76,266.99,71.76C270.71,71.76,274.28,73.24,276.91,75.87C279.54,78.5,281.03,82.08,281.03,85.8C281.03,85.8,281.03,85.8,281.03,85.8Z" /></g><g transform="matrix(1,0,0,1,0,0)"><path stroke-linejoin="round" stroke-linecap="round" stroke-width="8.03" stroke="#0857a0" fill="#0857a0" d="M275.68,126.19C275.68,130.99,271.79,134.88,266.99,134.88C262.19,134.88,258.29,130.99,258.29,126.19C258.29,121.39,262.19,117.5,266.99,117.5C271.79,117.5,275.68,121.39,275.68,126.19C275.68,126.19,275.68,126.19,275.68,126.19Z" /></g><g transform="matrix(1,0,0,1,0,0)"><path stroke-linejoin="round" stroke-linecap="round" stroke-width="8.03" stroke="#0857a0" fill="#0857a0" d="M275.68,156.33C275.68,161.13,271.79,165.03,266.99,165.03C262.19,165.03,258.29,161.13,258.29,156.33C258.29,151.53,262.19,147.64,266.99,147.64C271.79,147.64,275.68,151.53,275.68,156.33C275.68,156.33,275.68,156.33,275.68,156.33Z" /></g><g transform="matrix(1,0,0,1,0,0)"><path stroke-linejoin="round" stroke-linecap="round" stroke-width="8.03" stroke="#0857a0" fill="#0857a0" d="M275.68,186.22C275.68,191.02,271.79,194.92,266.99,194.92C262.19,194.92,258.29,191.02,258.29,186.22C258.29,181.42,262.19,177.53,266.99,177.53C271.79,177.53,275.68,181.42,275.68,186.22C275.68,186.22,275.68,186.22,275.68,186.22Z" /></g><g transform="matrix(1,0,0,1,0,0)"><path stroke-linejoin="round" stroke-linecap="round" stroke-width="8.03" stroke="#0857a0" fill="#0857a0" d="M275.68,216.36C275.68,221.16,271.79,225.06,266.99,225.06C262.19,225.06,258.29,221.16,258.29,216.36C258.29,211.56,262.19,207.67,266.99,207.67C271.79,207.67,275.68,211.56,275.68,216.36C275.68,216.36,275.68,216.36,275.68,216.36Z" /></g><g transform="matrix(1,0,0,1,0,0)"><path stroke-linejoin="round" stroke-linecap="round" stroke-width="8.03" stroke="#0857a0" fill="#0857a0" d="M275.68,245.77C275.68,250.57,271.79,254.46,266.99,254.46C262.19,254.46,258.29,250.57,258.29,245.77C258.29,240.97,262.19,237.07,266.99,237.07C271.79,237.07,275.68,240.97,275.68,245.77C275.68,245.77,275.68,245.77,275.68,245.77Z" /></g></g></g><g><g transform="translate(256.137,255.886)"><animateTransform repeatCount="indefinite" type="translate" attributeName="transform" dur="1.5s" begin="0s" calcMode="spline" values="256.137 255.886; 256.137 255.886; 228.005 255.886; 256.137 255.886; 256.137 255.886" keyTimes="0; 0.333333; 0.533333; 0.733333; 1" keySplines="0 0 1 1; 0 0 1 1; 0 0 1 1; 0 0 1 1" fill="freeze" /><g transform="translate(-255.997,-255.996)"><g transform="matrix(1,0,0,1,0,0)"><path stroke-linejoin="round" stroke-linecap="round" stroke-width="8.03" stroke="#0857a0" fill="#0857a0" d="M292.69,280.24C292.69,285.04,288.8,288.94,284,288.94C279.2,288.94,275.3,285.04,275.3,280.24C275.3,275.44,279.2,271.55,284,271.55C288.8,271.55,292.69,275.44,292.69,280.24C292.69,280.24,292.69,280.24,292.69,280.24Z" /></g></g></g></g><g><g transform="translate(256.137,255.886)"><animateTransform repeatCount="indefinite" type="translate" attributeName="transform" dur="1.5s" begin="0s" calcMode="spline" values="256.137 255.886; 256.137 255.886; 279.146 255.886; 256.137 255.886; 256.137 255.886" keyTimes="0; 0.333333; 0.533333; 0.733333; 1" keySplines="0 0 1 1; 0 0 1 1; 0 0 1 1; 0 0 1 1" fill="freeze" /><g transform="translate(-255.997,-255.996)"><g transform="matrix(1,0,0,1,0,0)"><path stroke-linejoin="round" stroke-linecap="round" stroke-width="8.03" stroke="#0857a0" fill="#0857a0" d="M241.55,280.24C241.55,285.04,237.66,288.94,232.86,288.94C228.06,288.94,224.16,285.04,224.16,280.24C224.16,275.44,228.06,271.55,232.86,271.55C237.66,271.55,241.55,275.44,241.55,280.24C241.55,280.24,241.55,280.24,241.55,280.24Z" /></g></g></g></g><g><g transform="translate(256.137,255.886)"><animateTransform repeatCount="indefinite" type="translate" attributeName="transform" dur="1.5s" begin="0s" calcMode="spline" values="256.137 255.886; 256.137 255.886; 222.833 255.886; 256.137 255.886" keyTimes="0; 0.6; 0.8; 1" keySplines="0 0 1 1; 0 0 1 1; 0 0 1 1" fill="freeze" /><g transform="translate(-255.997,-255.996)"><g transform="matrix(1,0,0,1,0,0)"><path stroke-linejoin="round" stroke-linecap="round" stroke-width="8.03" stroke="#0857a0" fill="#0857a0" d="M297.86,130.52C297.86,135.32,293.97,139.22,289.17,139.22C284.37,139.22,280.48,135.32,280.48,130.52C280.48,125.72,284.37,121.83,289.17,121.83C293.97,121.83,297.86,125.72,297.86,130.52C297.86,130.52,297.86,130.52,297.86,130.52Z" /></g></g></g></g><g><g transform="translate(256.137,255.886)"><animateTransform repeatCount="indefinite" type="translate" attributeName="transform" dur="1.5s" begin="0s" calcMode="spline" values="256.137 255.886; 256.137 255.886; 286.755 255.886; 256.137 255.886" keyTimes="0; 0.6; 0.8; 1" keySplines="0 0 1 1; 0 0 1 1; 0 0 1 1" fill="freeze" /><g transform="translate(-255.997,-255.996)"><g transform="matrix(1,0,0,1,0,0)"><path stroke-linejoin="round" stroke-linecap="round" stroke-width="8.03" stroke="#0857a0" fill="#0857a0" d="M233.94,130.52C233.94,135.32,230.05,139.22,225.25,139.22C220.45,139.22,216.56,135.32,216.56,130.52C216.56,125.72,220.45,121.83,225.25,121.83C230.05,121.83,233.94,125.72,233.94,130.52C233.94,130.52,233.94,130.52,233.94,130.52Z" /></g></g></g></g><g><g transform="translate(256.137,255.886)"><animateTransform repeatCount="indefinite" type="translate" attributeName="transform" dur="1.5s" begin="0s" calcMode="spline" values="256.137 255.886; 256.137 255.886; 228.005 255.886; 256.137 255.886; 256.137 255.886" keyTimes="0; 0.266667; 0.466667; 0.666667; 1" keySplines="0 0 1 1; 0 0 1 1; 0 0 1 1; 0 0 1 1" fill="freeze" /><g transform="translate(-255.997,-255.996)"><g transform="matrix(1,0,0,1,0,0)"><path stroke-linejoin="round" stroke-linecap="round" stroke-width="8.03" stroke="#0857a0" fill="#0857a0" d="M292.69,309.94C292.69,314.74,288.8,318.64,284,318.64C279.2,318.64,275.3,314.74,275.3,309.94C275.3,305.14,279.2,301.25,284,301.25C288.8,301.25,292.69,305.14,292.69,309.94C292.69,309.94,292.69,309.94,292.69,309.94Z" /></g></g></g></g><g><g transform="translate(256.137,255.886)"><animateTransform repeatCount="indefinite" type="translate" attributeName="transform" dur="1.5s" begin="0s" calcMode="spline" values="256.137 255.886; 256.137 255.886; 279.146 255.886; 256.137 255.886; 256.137 255.886" keyTimes="0; 0.266667; 0.466667; 0.666667; 1" keySplines="0 0 1 1; 0 0 1 1; 0 0 1 1; 0 0 1 1" fill="freeze" /><g transform="translate(-255.997,-255.996)"><g transform="matrix(1,0,0,1,0,0)"><path stroke-linejoin="round" stroke-linecap="round" stroke-width="8.03" stroke="#0857a0" fill="#0857a0" d="M241.55,309.94C241.55,314.74,237.66,318.64,232.86,318.64C228.06,318.64,224.16,314.74,224.16,309.94C224.16,305.14,228.06,301.25,232.86,301.25C237.66,301.25,241.55,305.14,241.55,309.94C241.55,309.94,241.55,309.94,241.55,309.94Z" /></g></g></g></g><g><g transform="translate(256.137,255.886)"><animateTransform repeatCount="indefinite" type="translate" attributeName="transform" dur="1.5s" begin="0s" calcMode="spline" values="256.137 255.886; 256.137 255.886; 228.005 255.886; 256.137 255.886; 256.137 255.886" keyTimes="0; 0.2; 0.4; 0.6; 1" keySplines="0 0 1 1; 0 0 1 1; 0 0 1 1; 0 0 1 1" fill="freeze" /><g transform="translate(-255.997,-255.996)"><g transform="matrix(1,0,0,1,0,0)"><path stroke-linejoin="round" stroke-linecap="round" stroke-width="8.03" stroke="#0857a0" fill="#0857a0" d="M292.69,339.65C292.69,344.45,288.8,348.34,284,348.34C279.2,348.34,275.3,344.45,275.3,339.65C275.3,334.85,279.2,330.95,284,330.95C288.8,330.95,292.69,334.85,292.69,339.65C292.69,339.65,292.69,339.65,292.69,339.65Z" /></g></g></g></g><g><g transform="translate(256.137,255.886)"><animateTransform repeatCount="indefinite" type="translate" attributeName="transform" dur="1.5s" begin="0s" calcMode="spline" values="256.137 255.886; 256.137 255.886; 279.146 255.886; 256.137 255.886; 256.137 255.886" keyTimes="0; 0.2; 0.4; 0.6; 1" keySplines="0 0 1 1; 0 0 1 1; 0 0 1 1; 0 0 1 1" fill="freeze" /><g transform="translate(-255.997,-255.996)"><g transform="matrix(1,0,0,1,0,0)"><path stroke-linejoin="round" stroke-linecap="round" stroke-width="8.03" stroke="#0857a0" fill="#0857a0" d="M241.55,339.65C241.55,344.45,237.66,348.34,232.86,348.34C228.06,348.34,224.16,344.45,224.16,339.65C224.16,334.85,228.06,330.95,232.86,330.95C237.66,330.95,241.55,334.85,241.55,339.65C241.55,339.65,241.55,339.65,241.55,339.65Z" /></g></g></g></g><g><g transform="translate(256.137,255.886)"><animateTransform repeatCount="indefinite" type="translate" attributeName="transform" dur="1.5s" begin="0s" calcMode="spline" values="256.137 255.886; 256.137 255.886; 228.005 255.886; 256.137 255.886; 256.137 255.886" keyTimes="0; 0.133333; 0.311111; 0.533333; 1" keySplines="0 0 1 1; 0 0 1 1; 0 0 1 1; 0 0 1 1" fill="freeze" /><g transform="translate(-255.997,-255.996)"><g transform="matrix(1,0,0,1,0,0)"><path stroke-linejoin="round" stroke-linecap="round" stroke-width="8.03" stroke="#0857a0" fill="#0857a0" d="M292.69,369.35C292.69,374.15,288.8,378.04,284,378.04C279.2,378.04,275.3,374.15,275.3,369.35C275.3,364.55,279.2,360.66,284,360.66C288.8,360.66,292.69,364.55,292.69,369.35C292.69,369.35,292.69,369.35,292.69,369.35Z" /></g></g></g></g><g><g transform="translate(256.137,255.886)"><animateTransform repeatCount="indefinite" type="translate" attributeName="transform" dur="1.5s" begin="0s" calcMode="spline" values="256.137 255.886; 256.137 255.886; 279.146 255.886; 256.137 255.886; 256.137 255.886" keyTimes="0; 0.133333; 0.311111; 0.533333; 1" keySplines="0 0 1 1; 0 0 1 1; 0 0 1 1; 0 0 1 1" fill="freeze" /><g transform="translate(-255.997,-255.996)"><g transform="matrix(1,0,0,1,0,0)"><path stroke-linejoin="round" stroke-linecap="round" stroke-width="8.03" stroke="#0857a0" fill="#0857a0" d="M241.55,369.35C241.55,374.15,237.66,378.04,232.86,378.04C228.06,378.04,224.16,374.15,224.16,369.35C224.16,364.55,228.06,360.66,232.86,360.66C237.66,360.66,241.55,364.55,241.55,369.35C241.55,369.35,241.55,369.35,241.55,369.35Z" /></g></g></g></g><g><g transform="translate(256.137,255.886)"><animateTransform repeatCount="indefinite" type="translate" attributeName="transform" dur="1.5s" begin="0s" calcMode="spline" values="256.137 255.886; 256.137 255.886; 228.005 255.886; 256.137 255.886; 256.137 255.886" keyTimes="0; 0.066667; 0.244444; 0.422222; 1" keySplines="0 0 1 1; 0 0 1 1; 0 0 1 1; 0 0 1 1" fill="freeze" /><g transform="translate(-255.997,-255.996)"><g transform="matrix(1,0,0,1,0,0)"><path stroke-linejoin="round" stroke-linecap="round" stroke-width="8.03" stroke="#0857a0" fill="#0857a0" d="M292.69,399.98C292.69,404.78,288.8,408.68,284,408.68C279.2,408.68,275.3,404.78,275.3,399.98C275.3,395.18,279.2,391.29,284,391.29C288.8,391.29,292.69,395.18,292.69,399.98C292.69,399.98,292.69,399.98,292.69,399.98Z" /></g></g></g></g><g><g transform="translate(256.137,255.886)"><animateTransform repeatCount="indefinite" type="translate" attributeName="transform" dur="1.5s" begin="0s" calcMode="spline" values="256.137 255.886; 256.137 255.886; 279.146 255.886; 256.137 255.886; 256.137 255.886" keyTimes="0; 0.066667; 0.244444; 0.422222; 1" keySplines="0 0 1 1; 0 0 1 1; 0 0 1 1; 0 0 1 1" fill="freeze" /><g transform="translate(-255.997,-255.996)"><g transform="matrix(1,0,0,1,0,0)"><path stroke-linejoin="round" stroke-linecap="round" stroke-width="8.03" stroke="#0857a0" fill="#0857a0" d="M241.55,399.98C241.55,404.78,237.66,408.68,232.86,408.68C228.06,408.68,224.16,404.78,224.16,399.98C224.16,395.18,228.06,391.29,232.86,391.29C237.66,391.29,241.55,395.18,241.55,399.98C241.55,399.98,241.55,399.98,241.55,399.98Z" /></g></g></g></g><g><g transform="translate(256.137,255.886)"><animateTransform repeatCount="indefinite" type="translate" attributeName="transform" dur="1.5s" begin="0s" calcMode="spline" values="256.137 255.886; 228.003 256.222; 256.137 255.886; 256.137 255.886" keyTimes="0; 0.177778; 0.355555; 1" keySplines="0 0 1 1; 0 0 1 1; 0 0 1 1" fill="freeze" /><g transform="translate(-255.997,-255.996)"><g transform="matrix(1,0,0,1,0,0)"><path stroke-linejoin="round" stroke-linecap="round" stroke-width="8.03" stroke="#0857a0" fill="#0857a0" d="M292.69,429.68C292.69,434.48,288.8,438.38,284,438.38C279.2,438.38,275.3,434.48,275.3,429.68C275.3,424.88,279.2,420.99,284,420.99C288.8,420.99,292.69,424.88,292.69,429.68C292.69,429.68,292.69,429.68,292.69,429.68Z" /></g></g></g></g><g><g transform="translate(256.137,255.886)"><animateTransform repeatCount="indefinite" type="translate" attributeName="transform" dur="1.5s" begin="0s" calcMode="spline" values="256.137 255.886; 279.143 256.222; 256.137 255.886; 256.137 255.886" keyTimes="0; 0.177778; 0.355555; 1" keySplines="0 0 1 1; 0 0 1 1; 0 0 1 1" fill="freeze" /><g transform="translate(-255.997,-255.996)"><g transform="matrix(1,0,0,1,0,0)"><path stroke-linejoin="round" stroke-linecap="round" stroke-width="8.03" stroke="#0857a0" fill="#0857a0" d="M241.55,429.68C241.55,434.48,237.66,438.38,232.86,438.38C228.06,438.38,224.16,434.48,224.16,429.68C224.16,424.88,228.06,420.99,232.86,420.99C237.66,420.99,241.55,424.88,241.55,429.68C241.55,429.68,241.55,429.68,241.55,429.68Z" /></g></g></g></g><g><g transform="translate(256.137,255.886)"><animateTransform repeatCount="indefinite" type="translate" attributeName="transform" dur="1.5s" begin="0s" calcMode="spline" values="256.137 255.886; 256.137 255.886; 201.567 255.886; 256.137 255.886; 256.137 255.886" keyTimes="0; 0.533333; 0.733333; 0.933333; 1" keySplines="0 0 1 1; 0 0 1 1; 0 0 1 1; 0 0 1 1" fill="freeze" /><g transform="translate(-255.997,-255.996)"><g transform="matrix(1,0,0,1,0,0)"><path stroke-linejoin="round" stroke-linecap="round" stroke-width="8.03" stroke="#0857a0" fill="#0857a0" d="M319.13,160.67C319.13,165.47,315.24,169.36,310.44,169.36C305.64,169.36,301.74,165.47,301.74,160.67C301.74,155.87,305.64,151.97,310.44,151.97C315.24,151.97,319.13,155.87,319.13,160.67C319.13,160.67,319.13,160.67,319.13,160.67Z" /></g></g></g></g><g><g transform="translate(256.137,255.886)"><animateTransform repeatCount="indefinite" type="translate" attributeName="transform" dur="1.5s" begin="0s" calcMode="spline" values="256.137 255.886; 256.137 255.886; 310.442 255.886; 256.137 255.886; 256.137 255.886" keyTimes="0; 0.533333; 0.733333; 0.933333; 1" keySplines="0 0 1 1; 0 0 1 1; 0 0 1 1; 0 0 1 1" fill="freeze" /><g transform="translate(-255.997,-255.996)"><g transform="matrix(1,0,0,1,0,0)"><path stroke-linejoin="round" stroke-linecap="round" stroke-width="8.03" stroke="#0857a0" fill="#0857a0" d="M210.26,160.67C210.26,165.47,206.36,169.36,201.56,169.36C196.76,169.36,192.87,165.47,192.87,160.67C192.87,155.87,196.76,151.97,201.56,151.97C206.36,151.97,210.26,155.87,210.26,160.67C210.26,160.67,210.26,160.67,210.26,160.67Z" /></g></g></g></g><g><g transform="translate(256.137,255.886)"><animateTransform repeatCount="indefinite" type="translate" attributeName="transform" dur="1.5s" begin="0s" calcMode="spline" values="256.137 255.886; 256.137 255.886; 201.567 255.886; 256.137 255.886; 256.137 255.886" keyTimes="0; 0.466667; 0.666667; 0.866667; 1" keySplines="0 0 1 1; 0 0 1 1; 0 0 1 1; 0 0 1 1" fill="freeze" /><g transform="translate(-255.997,-255.996)"><g transform="matrix(1,0,0,1,0,0)"><path stroke-linejoin="round" stroke-linecap="round" stroke-width="8.03" stroke="#0857a0" fill="#0857a0" d="M319.13,190.55C319.13,195.35,315.24,199.25,310.44,199.25C305.64,199.25,301.74,195.35,301.74,190.55C301.74,185.75,305.64,181.86,310.44,181.86C315.24,181.86,319.13,185.75,319.13,190.55C319.13,190.55,319.13,190.55,319.13,190.55Z" /></g></g></g></g><g><g transform="translate(256.137,255.886)"><animateTransform repeatCount="indefinite" type="translate" attributeName="transform" dur="1.5s" begin="0s" calcMode="spline" values="256.137 255.886; 256.137 255.886; 310.442 255.886; 256.137 255.886; 256.137 255.886" keyTimes="0; 0.466667; 0.666667; 0.866667; 1" keySplines="0 0 1 1; 0 0 1 1; 0 0 1 1; 0 0 1 1" fill="freeze" /><g transform="translate(-255.997,-255.996)"><g transform="matrix(1,0,0,1,0,0)"><path stroke-linejoin="round" stroke-linecap="round" stroke-width="8.03" stroke="#0857a0" fill="#0857a0" d="M210.26,190.55C210.26,195.35,206.36,199.25,201.56,199.25C196.76,199.25,192.87,195.35,192.87,190.55C192.87,185.75,196.76,181.86,201.56,181.86C206.36,181.86,210.26,185.75,210.26,190.55C210.26,190.55,210.26,190.55,210.26,190.55Z" /></g></g></g></g><g><g transform="translate(256.137,255.886)"><animateTransform repeatCount="indefinite" type="translate" attributeName="transform" dur="1.5s" begin="0s" calcMode="spline" values="256.137 255.886; 256.137 255.886; 201.567 255.886; 256.137 255.886; 256.137 255.886" keyTimes="0; 0.4; 0.6; 0.8; 1" keySplines="0 0 1 1; 0 0 1 1; 0 0 1 1; 0 0 1 1" fill="freeze" /><g transform="translate(-255.997,-255.996)"><g transform="matrix(1,0,0,1,0,0)"><path stroke-linejoin="round" stroke-linecap="round" stroke-width="8.03" stroke="#0857a0" fill="#0857a0" d="M319.13,220.7C319.13,225.5,315.24,229.39,310.44,229.39C305.64,229.39,301.74,225.5,301.74,220.7C301.74,215.9,305.64,212,310.44,212C315.24,212,319.13,215.9,319.13,220.7C319.13,220.7,319.13,220.7,319.13,220.7Z" /></g></g></g></g><g><g transform="translate(256.137,255.886)"><animateTransform repeatCount="indefinite" type="translate" attributeName="transform" dur="1.5s" begin="0s" calcMode="spline" values="256.137 255.886; 256.137 255.886; 310.442 255.886; 256.137 255.886; 256.137 255.886" keyTimes="0; 0.4; 0.6; 0.8; 1" keySplines="0 0 1 1; 0 0 1 1; 0 0 1 1; 0 0 1 1" fill="freeze" /><g transform="translate(-255.997,-255.996)"><g transform="matrix(1,0,0,1,0,0)"><path stroke-linejoin="round" stroke-linecap="round" stroke-width="8.03" stroke="#0857a0" fill="#0857a0" d="M210.26,220.7C210.26,225.5,206.36,229.39,201.56,229.39C196.76,229.39,192.87,225.5,192.87,220.7C192.87,215.9,196.76,212,201.56,212C206.36,212,210.26,215.9,210.26,220.7C210.26,220.7,210.26,220.7,210.26,220.7Z" /></g></g></g></g></g></g></g></g></svg>